{
.appVersion = "3420";
.formatVersion = 3;
DisplayStrings = (
"HHOOHo
T. L'
JsJ™
YoY.
Traded
Youthfully",
"/.notdef"
);
customParameters = (
{
name = glyphOrder;
value = (
A,
B,
C,
D,
E,
F,
G,
H,
I,
J,
K,
L,
M,
N,
O,
P,
Q,
R,
S,
T,
U,
V,
W,
X,
Y,
Z,
A.ss01,
B.ss01,
E.ss01,
G.ss01,
H.ss01,
J.ss01,
K.ss01,
M.ss01,
N.ss01,
U.ss01,
V.ss01,
W.ss01,
X.ss01,
Y.ss01,
Z.ss01,
E.ss02,
J.ss02,
Z.ss02,
a,
b,
c,
d,
e,
f,
g,
h,
i,
j,
k,
l,
m,
n,
o,
p,
q,
r,
s,
t,
u,
v,
w,
x,
y,
z,
a.ss03,
zero,
one,
two,
three,
four,
five,
six,
seven,
eight,
nine,
space,
period,
comma,
colon,
semicolon,
ellipsis,
exclam,
question,
periodcentered,
bullet,
asterisk,
numbersign,
slash,
backslash,
comma.ss01,
comma.ss02,
hyphen,
softhyphen,
endash,
emdash,
underscore,
parenleft,
parenright,
braceleft,
braceright,
bracketleft,
bracketright,
quotesinglbase,
quotedblbase,
quotedblleft,
quotedblright,
quoteleft,
quoteright,
quotedbl,
quotesingle,
at,
ampersand,
copyright,
registered,
trademark,
degree,
bar,
ampersand.ss04,
dollar,
euro,
sterling,
plus,
minus,
multiply,
equal,
percent
);
},
{
name = "Use Typo Metrics";
value = 1;
}
);
date = "2025-04-15 10:57:34 +0000";
familyName = "BBH Sans Hegarty";
featurePrefixes = (
{
code = "languagesystem DFLT dflt;";
name = Languagesystems;
}
);
features = (
{
automatic = 1;
code = "feature ss01;
feature ss02;
feature ss03;
feature ss04;
";
tag = aalt;
},
{
automatic = 1;
code = "sub A by A.ss01;
sub B by B.ss01;
sub E by E.ss01;
sub G by G.ss01;
sub H by H.ss01;
sub J by J.ss01;
sub K by K.ss01;
sub M by M.ss01;
sub N by N.ss01;
sub U by U.ss01;
sub V by V.ss01;
sub W by W.ss01;
sub X by X.ss01;
sub Y by Y.ss01;
sub Z by Z.ss01;
sub comma by comma.ss01;
";
labels = (
{
language = dflt;
value = "Zags 01";
}
);
tag = ss01;
},
{
automatic = 1;
code = "sub E by E.ss02;
sub J by J.ss02;
sub Z by Z.ss02;
sub comma by comma.ss02;
";
labels = (
{
language = dflt;
value = "Zags 02";
}
);
tag = ss02;
},
{
automatic = 1;
code = "sub a by a.ss03;
";
labels = (
{

glyphs = (
{
glyphname = A;
lastChange = "2025-07-24 08:47:57 +0000";
layers = (
{
background = {
shapes = (
{
closed = 1;
nodes = (
(256,0,l),
(367,350,l),
(405,501,l),
(423,501,l),
(459,350,l),
(564,0,l),
(850,0,l),
(590,700,l),
(230,700,l),
(-30,0,l)
);
},
{
closed = 1;
nodes = (
(613,109,l),
(613,281,l),
(177,281,l),
(177,109,l)
);
}
);
};
layerId = m01;
shapes = (
{
closed = 1;
nodes = (
(277,0,l),
(388,350,l),
(426,501,l),
(444,501,l),
(480,350,l),
(585,0,l),
(871,0,l),
(611,700,l),
(251,700,l),
(-9,0,l)
);
},
{
closed = 1;
nodes = (
(634,109,l),
(634,281,l),
(198,281,l),
(198,109,l)
);
}
);
width = 862;
}
);
unicode = 65;
},
{
glyphname = B;
kernLeft = H;
lastChange = "2025-07-24 08:47:57 +0000";
layers = (
{
background = {
shapes = (
{
closed = 1;
nodes = (
(601,0,ls),
(731,0,o),
(812,74,o),
(812,180,cs),
(812,271,o),
(750,335,o),
(609,343,c),
(609,363,l),
(745,373,o),
(790,447,o),
(790,526,cs),
(790,630,o),
(715,700,o),
(569,700,cs),
(40,700,l),
(40,0,l)
);
},
{
closed = 1;
nodes = (
(316,273,l),
(477,273,ls),
(502,273,o),
(518,257,o),
(518,233,cs),
(518,209,o),
(502,193,o),
(477,193,cs),
(316,193,l)
);
},
{
closed = 1;
nodes = (
(316,507,l),
(461,507,ls),
(486,507,o),
(502,491,o),
(502,467,cs),
(502,443,o),
(486,427,o),
(461,427,cs),
(316,427,l)
);
}
);
};
layerId = m01;
shapes = (
{
closed = 1;
nodes = (
(601,0,ls),
(731,0,o),
(812,74,o),
(812,180,cs),
(812,271,o),
(750,335,o),
(609,343,c),
(609,363,l),
(745,373,o),
(790,447,o),
(790,526,cs),
(790,630,o),
(715,700,o),
(569,700,cs),
(40,700,l),
(40,0,l)
);
},
{
closed = 1;
nodes = (
(316,273,l),
(477,273,ls),
(502,273,o),
(518,257,o),
(518,233,cs),
(518,209,o),
(502,193,o),
(477,193,cs),
(316,193,l)
);
},
{
closed = 1;
nodes = (
(316,507,l),
(461,507,ls),
(486,507,o),
(502,491,o),
(502,467,cs),
(502,443,o),
(486,427,o),
(461,427,cs),
(316,427,l)
);
}
);
width = 814;
}
);
unicode = 66;
},
{
glyphname = C;
kernLeft = O;
lastChange = "2025-07-24 08:47:57 +0000";
layers = (
{
background = {
guides = (
{
angle = 101.1292;
pos = (826,465);
}
);
shapes = (
{
closed = 1;
nodes = (
(642,-16,o),
(808,93,o),
(831,254,c),
(544,312,l),
(539,257,o),
(492,214,o),
(431,214,cs),
(365,214,o),
(314,261,o),
(314,320,cs),
(314,380,ls),
(314,439,o),
(365,486,o),
(431,486,cs),
(492,486,o),
(539,443,o),
(544,388,c),
(831,446,l),
(808,607,o),
(642,716,o),
(431,716,cs),
(190,716,o),
(20,577,o),
(20,380,cs),
(20,320,ls),
(20,123,o),
(190,-16,o),
(431,-16,cs)
);
}
);
};
guides = (
{
angle = 101.1292;
pos = (826,465);
}
);
layerId = m01;
shapes = (
{
closed = 1;
nodes = (
(642,-16,o),
(808,93,o),
(831,254,c),
(544,312,l),
(539,257,o),
(492,214,o),
(431,214,cs),
(365,214,o),
(314,261,o),
(314,320,cs),
(314,380,ls),
(314,439,o),
(365,486,o),
(431,486,cs),
(492,486,o),
(539,443,o),
(544,388,c),
(831,446,l),
(808,607,o),
(642,716,o),
(431,716,cs),
(190,716,o),
(20,577,o),
(20,380,cs),
(20,320,ls),
(20,123,o),
(190,-16,o),
(431,-16,cs)
);
}
);
width = 837;
}
);
unicode = 67;
},
{
glyphname = D;
kernLeft = H;
lastChange = "2025-07-24 08:47:57 +0000";
layers = (
{
background = {
shapes = (
{
closed = 1;
nodes = (
(397,0,ls),
(638,0,o),
(808,133,o),
(808,321,cs),
(808,379,ls),
(808,567,o),
(638,700,o),
(397,700,cs),
(40,700,l),
(40,0,l)
);
},
{
closed = 1;
nodes = (
(320,474,l),
(397,474,ls),
(463,474,o),
(514,430,o),
(514,374,cs),
(514,326,ls),
(514,270,o),
(463,226,o),
(397,226,cs),
(320,226,l)
);
}
);
};
layerId = m01;
shapes = (
{
closed = 1;
nodes = (
(397,0,ls),
(638,0,o),
(808,133,o),
(808,321,cs),
(808,379,ls),
(808,567,o),
(638,700,o),
(397,700,cs),
(40,700,l),
(40,0,l)
);
},
{
closed = 1;
nodes = (
(320,474,l),
(397,474,ls),
(463,474,o),
(514,430,o),
(514,374,cs),
(514,326,ls),
(514,270,o),
(463,226,o),
(397,226,cs),
(320,226,l)
);
}
);
width = 828;
}
);
unicode = 68;
},
{
glyphname = E;
kernLeft = H;
lastChange = "2025-07-24 08:47:57 +0000";
layers = (
{
background = {
shapes = (
{
closed = 1;
nodes = (
(320,0,l),
(320,700,l),
(40,700,l),
(40,0,l)
);
},
{
closed = 1;
nodes = (
(698,0,l),
(698,202,l),
(227,202,l),
(227,0,l)
);
},
{
closed = 1;
nodes = (
(590,264,l),
(590,436,l),
(204,436,l),
(204,264,l)
);
},
{
closed = 1;
nodes = (
(698,498,l),
(698,700,l),
(227,700,l),
(227,498,l)
);
}
);
};
layerId = m01;
shapes = (
{
closed = 1;
nodes = (
(320,0,l),
(320,700,l),
(40,700,l),
(40,0,l)
);
},
{
closed = 1;
nodes = (
(698,0,l),
(698,202,l),
(227,202,l),
(227,0,l)
);
},
{
closed = 1;
nodes = (
(590,264,l),
(590,436,l),
(204,436,l),
(204,264,l)
);
},
{
closed = 1;
nodes = (
(698,498,l),
(698,700,l),
(227,700,l),
(227,498,l)
);
}
);
width = 725;
}
);
unicode = 69;
},
{
glyphname = F;
kernLeft = H;
lastChange = "2025-07-24 08:47:57 +0000";
layers = (
{
background = {
shapes = (
{
closed = 1;
nodes = (
(320,0,l),
(320,204,l),
(560,204,l),
(560,396,l),
(320,396,l),
(320,468,l),
(668,468,l),
(668,700,l),
(40,700,l),
(40,0,l)
);
}
);
};
layerId = m01;
shapes = (
{
closed = 1;
nodes = (
(320,0,l),
(320,204,l),
(560,204,l),
(560,396,l),
(320,396,l),
(320,468,l),
(668,468,l),
(668,700,l),
(40,700,l),
(40,0,l)
);
}
);
width = 679;
}
);
unicode = 70;
},
{
glyphname = G;
kernLeft = O;
lastChange = "2025-07-24 08:47:57 +0000";
layers = (
{
background = {
shapes = (
{
closed = 1;
nodes = (
(314,346,l),
(314,381,ls),
(314,453,o),
(366,492,o),
(429,492,cs),
(478,492,o),
(530,468,o),
(544,411,c),
(826,464,l),
(783,637,o),
(618,716,o),
(431,716,cs),
(190,716,o),
(20,589,o),
(20,381,cs),
(20,346,l)
);
},
{
closed = 1;
nodes = (
(20,346,l),
(20,320,ls),
(20,99,o),
(193,-16,o),
(356,-16,cs),
(456,-16,o),
(556,27,o),
(585,116,c),
(603,116,l),
(594,0,l),
(830,0,l),
(830,380,l),
(422,380,l),
(422,266,l),
(569,266,l),
(554,221,o),
(504,194,o),
(447,194,cs),
(370,194,o),
(314,244,o),
(314,320,cs),
(314,346,l)
);
}
);
};
layerId = m01;
shapes = (
{
closed = 1;
nodes = (
(315,346,l),
(315,381,ls),
(315,453,o),
(367,492,o),
(430,492,cs),
(479,492,o),
(531,468,o),
(545,411,c),
(827,464,l),
(784,637,o),
(619,716,o),
(432,716,cs),
(191,716,o),
(21,589,o),
(21,381,cs),
(21,346,l)
);
},
{
closed = 1;
nodes = (
(21,346,l),
(21,320,ls),
(21,99,o),
(194,-16,o),
(357,-16,cs),
(457,-16,o),
(557,27,o),
(586,116,c),
(604,116,l),
(595,0,l),
(831,0,l),
(831,380,l),
(423,380,l),
(423,266,l),
(570,266,l),
(555,221,o),
(505,194,o),
(448,194,cs),
(371,194,o),
(315,244,o),
(315,320,cs),
(315,346,l)
);
}
);
width = 861;
}
);
unicode = 71;
},
{
glyphname = H;
kernLeft = H;
kernRight = H;
lastChange = "2025-07-24 08:47:57 +0000";
layers = (
{
background = {
shapes = (
{
closed = 1;
nodes = (
(800,0,l),
(800,700,l),
(520,700,l),
(520,0,l)
);
},
{
closed = 1;
nodes = (
(320,0,l),
(320,700,l),
(40,700,l),
(40,0,l)
);
},
{
closed = 1;
nodes = (
(663,249,l),
(663,471,l),
(227,471,l),
(227,249,l)
);
}
);
};
layerId = m01;
shapes = (
{
closed = 1;
nodes = (
(800,0,l),
(800,700,l),
(520,700,l),
(520,0,l)
);
},
{
closed = 1;
nodes = (
(320,0,l),
(320,700,l),
(40,700,l),
(40,0,l)
);
},
{
closed = 1;
nodes = (
(663,249,l),
(663,471,l),
(227,471,l),
(227,249,l)
);
}
);
width = 840;
}
);
unicode = 72;
},
{
glyphname = I;
kernLeft = H;
kernRight = H;
lastChange = "2025-07-24 08:47:57 +0000";
layers = (
{
background = {
shapes = (
{
closed = 1;
nodes = (
(320,0,l),
(320,700,l),
(40,700,l),
(40,0,l)
);
}
);
};
layerId = m01;
shapes = (
{
closed = 1;
nodes = (
(320,0,l),
(320,700,l),
(40,700,l),
(40,0,l)
);
}
);
width = 360;
}
);
unicode = 73;
},
{
glyphname = J;
kernRight = J;
lastChange = "2025-07-24 08:47:57 +0000";
layers = (
{
layerId = m01;
shapes = (
{
closed = 1;
nodes = (
(594,-16,o),
(733,92,o),
(733,286,cs),
(733,700,l),
(453,700,l),
(453,323,ls),
(453,250,o),
(422,214,o),
(360,214,cs),
(300,214,o),
(258,251,o),
(246,312,c),
(-9,261,l),
(23,83,o),
(150,-16,o),
(361,-16,cs)
);
},
{
closed = 1;
nodes = (
(609,468,l),
(609,700,l),
(173,700,l),
(173,468,l)
);
}
);
width = 767;
}
);
unicode = 74;
},
{
glyphname = K;
kernLeft = H;
lastChange = "2025-07-24 08:47:57 +0000";
layers = (
{
background = {
guides = (
{
angle = 43.8612;
pos = (526,700);
}
);
shapes = (
{
closed = 1;
nodes = (
(840,700,l),
(526,700,l),
(250,420,l),
(250,133,l)
);
},
{
closed = 1;
nodes = (
(320,0,l),
(320,700,l),
(40,700,l),
(40,0,l)
);
},
{
closed = 1;
nodes = (
(860,0,l),
(552,465,l),
(310,370,l),
(520,0,l)
);
}
);
};
guides = (
{
angle = 43.8612;
pos = (526,700);
}
);
layerId = m01;
shapes = (
{
closed = 1;
nodes = (
(840,700,l),
(526,700,l),
(250,420,l),
(250,133,l)
);
},
{
closed = 1;
nodes = (
(320,0,l),
(320,700,l),
(40,700,l),
(40,0,l)
);
},
{
closed = 1;
nodes = (
(860,0,l),
(552,465,l),
(310,370,l),
(520,0,l)
);
}
);
width = 836;
}
);
unicode = 75;
},
{
glyphname = L;
kernLeft = H;
lastChange = "2025-07-24 08:47:57 +0000";
layers = (
{
background = {
shapes = (
{
closed = 1;
nodes = (
(628,0,l),
(628,232,l),
(320,232,l),
(320,700,l),
(40,700,l),
(40,0,l)
);
}
);
};
layerId = m01;
shapes = (
{
closed = 1;
nodes = (
(628,0,l),
(628,232,l),
(320,232,l),
(320,700,l),
(40,700,l),
(40,0,l)
);
}
);
width = 638;
}
);
unicode = 76;
},
{
glyphname = M;
kernLeft = H;
kernRight = H;
lastChange = "2025-07-24 08:47:57 +0000";
layers = (
{
background = {
shapes = (
{
closed = 1;
nodes = (
(310,0,l),
(310,410,l),
(295,407,l),
(440,0,l),
(646,0,l),
(791,407,l),
(776,410,l),
(776,0,l),
(1046,0,l),
(1046,700,l),
(660,700,l),
(487,215,l),
(599,215,l),
(426,700,l),
(40,700,l),
(40,0,l)
);
}
);
};
layerId = m01;
shapes = (
{
closed = 1;
nodes = (
(310,0,l),
(310,410,l),
(295,407,l),
(440,0,l),
(646,0,l),
(791,407,l),
(776,410,l),
(776,0,l),
(1046,0,l),
(1046,700,l),
(660,700,l),
(487,215,l),
(599,215,l),
(426,700,l),
(40,700,l),
(40,0,l)
);
}
);
width = 1086;
}
);
unicode = 77;
},
{
glyphname = N;
kernLeft = H;
kernRight = H;
lastChange = "2025-07-24 08:47:57 +0000";
layers = (
{
background = {
shapes = (
{
closed = 1;
nodes = (
(680,250,l),
(306,700,l),
(190,450,l),
(564,0,l)
);
},
{
closed = 1;
nodes = (
(310,0,l),
(310,659,l),
(306,700,l),
(40,700,l),
(40,0,l)
);
},
{
closed = 1;
nodes = (
(830,0,l),
(830,700,l),
(560,700,l),
(560,62,l),
(564,0,l)
);
}
);
};
layerId = m01;
shapes = (
{
closed = 1;
nodes = (
(680,250,l),
(306,700,l),
(190,450,l),
(564,0,l)
);
},
{
closed = 1;
nodes = (
(310,0,l),
(310,659,l),
(306,700,l),
(40,700,l),
(40,0,l)
);
},
{
closed = 1;
nodes = (
(830,0,l),
(830,700,l),
(560,700,l),
(560,62,l),
(564,0,l)
);
}
);
width = 870;
}
);
unicode = 78;
},
{
glyphname = O;
kernLeft = O;
lastChange = "2025-07-24 08:47:57 +0000";
layers = (
{
background = {
shapes = (
{
closed = 1;
nodes = (
(497,486,o),
(548,439,o),
(548,380,cs),
(548,320,ls),
(548,261,o),
(497,214,o),
(431,214,cs),
(365,214,o),
(314,261,o),
(314,320,cs),
(314,380,ls),
(314,439,o),
(365,486,o),
(431,486,cs)
);
},
{
closed = 1;
nodes = (
(20,123,o),
(190,-16,o),
(431,-16,cs),
(672,-16,o),
(842,123,o),
(842,320,cs),
(842,380,ls),
(842,577,o),
(672,716,o),
(431,716,cs),
(190,716,o),
(20,577,o),
(20,380,cs),
(20,320,ls)
);
}
);
};
layerId = m01;
shapes = (
{
closed = 1;
nodes = (
(497,486,o),
(548,439,o),
(548,380,cs),
(548,320,ls),
(548,261,o),
(497,214,o),
(431,214,cs),
(365,214,o),
(314,261,o),
(314,320,cs),
(314,380,ls),
(314,439,o),
(365,486,o),
(431,486,cs)
);
},
{
closed = 1;
nodes = (
(20,123,o),
(190,-16,o),
(431,-16,cs),
(672,-16,o),
(842,123,o),
(842,320,cs),
(842,380,ls),
(842,577,o),
(672,716,o),
(431,716,cs),
(190,716,o),
(20,577,o),
(20,380,cs),
(20,320,ls)
);
}
);
width = 862;
}
);
unicode = 79;
},
{
glyphname = P;
kernLeft = H;
lastChange = "2025-07-24 08:47:57 +0000";
layers = (
{
background = {
shapes = (
{
closed = 1;
nodes = (
(531,175,ls),
(679,175,o),
(772,279,o),
(772,445,cs),
(772,602,o),
(679,700,o),
(531,700,cs),
(150,700,l),
(150,487,l),
(437,487,ls),
(468,487,o),
(488,467,o),
(488,436,cs),
(488,405,o),
(468,385,o),
(437,385,cs),
(269,385,l),
(269,175,l)
);
},
{
closed = 1;
nodes = (
(326,0,l),
(326,700,l),
(40,700,l),
(40,0,l)
);
}
);
};
layerId = m01;
shapes = (
{
closed = 1;
nodes = (
(531,175,ls),
(679,175,o),
(772,279,o),
(772,445,cs),
(772,602,o),
(679,700,o),
(531,700,cs),
(150,700,l),
(150,487,l),
(437,487,ls),
(468,487,o),
(488,467,o),
(488,436,cs),
(488,405,o),
(468,385,o),
(437,385,cs),
(269,385,l),
(269,175,l)
);
},
{
closed = 1;
nodes = (
(326,0,l),
(326,700,l),
(40,700,l),
(40,0,l)
);
}
);
width = 779;
}
);
unicode = 80;
},
{
glyphname = Q;
lastChange = "2025-07-24 08:47:57 +0000";
layers = (
{
background = {
shapes = (
{
closed = 1;
nodes = (
(866,0,l),
(866,205,l),
(711,183,l),
(711,202,l),
(793,234,o),
(836,300,o),
(836,384,cs),
(836,391,ls),
(836,582,o),
(669,716,o),
(431,716,cs),
(190,716,o),
(20,577,o),
(20,380,cs),
(20,320,ls),
(20,132,o),
(190,0,o),
(431,0,cs)
);
},
{
closed = 1;
nodes = (
(365,214,o),
(314,261,o),
(314,320,cs),
(314,380,ls),
(314,439,o),
(365,486,o),
(431,486,cs),
(497,486,o),
(548,439,o),
(548,380,cs),
(548,320,ls),
(548,261,o),
(497,214,o),
(431,214,cs)
);
}
);
};
layerId = m01;
shapes = (
{
closed = 1;
nodes = (
(866,0,l),
(866,205,l),
(711,183,l),
(711,202,l),
(793,234,o),
(836,300,o),
(836,384,cs),
(836,391,ls),
(836,582,o),
(669,716,o),
(431,716,cs),
(190,716,o),
(20,577,o),
(20,380,cs),
(20,320,ls),
(20,132,o),
(190,0,o),
(431,0,cs)
);
},
{
closed = 1;
nodes = (
(365,214,o),
(314,261,o),
(314,320,cs),
(314,380,ls),
(314,439,o),
(365,486,o),
(431,486,cs),
(497,486,o),
(548,439,o),
(548,380,cs),
(548,320,ls),
(548,261,o),
(497,214,o),
(431,214,cs)
);
}
);
width = 879;
}
);
unicode = 81;
},
{
glyphname = R;
kernLeft = H;
lastChange = "2025-07-24 08:47:57 +0000";
layers = (
{
background = {
shapes = (
{
closed = 1;
nodes = (
(512,0,l),
(798,0,l),
(798,156,ls),
(798,261,o),
(753,302,o),
(617,323,c),
(617,343,l),
(753,363,o),
(798,436,o),
(798,519,cs),
(798,628,o),
(723,700,o),
(577,700,cs),
(40,700,l),
(40,0,l),
(326,0,l),
(326,197,l),
(442,197,ls),
(487,197,o),
(512,172,o),
(512,127,cs)
);
},
{
closed = 1;
nodes = (
(326,487,l),
(473,487,ls),
(498,487,o),
(514,469,o),
(514,443,cs),
(514,417,o),
(498,399,o),
(473,399,cs),
(326,399,l)
);
}
);
};
layerId = m01;
shapes = (
{
closed = 1;
nodes = (
(512,0,l),
(798,0,l),
(798,156,ls),
(798,261,o),
(753,302,o),
(617,323,c),
(617,343,l),
(753,363,o),
(798,436,o),
(798,519,cs),
(798,628,o),
(723,700,o),
(577,700,cs),
(40,700,l),
(40,0,l),
(326,0,l),
(326,197,l),
(442,197,ls),
(487,197,o),
(512,172,o),
(512,127,cs)
);
},
{
closed = 1;
nodes = (
(326,487,l),
(473,487,ls),
(498,487,o),
(514,469,o),
(514,443,cs),
(514,417,o),
(498,399,o),
(473,399,cs),
(326,399,l)
);
}
);
width = 817;
}
);
unicode = 82;
},
{
glyphname = S;
lastChange = "2025-07-24 08:47:57 +0000";
layers = (
{
background = {
guides = (
{
pos = (441,165);
},
{
angle = 194.6209;
pos = (132,212);
}
);
shapes = (
{
closed = 1;
nodes = (
(670,-16,o),
(818,83,o),
(818,240,cs),
(818,446,o),
(594,449,o),
(442,456,cs),
(363,459,o),
(303,464,o),
(303,497,cs),
(303,522,o),
(336,535,o),
(388,535,cs),
(447,535,o),
(522,517,o),
(549,473,c),
(808,541,l),
(747,649,o),
(585,716,o),
(387,716,cs),
(161,716,o),
(19,626,o),
(19,469,cs),
(19,275,o),
(235,257,o),
(387,250,cs),
(470,246,o),
(534,240,o),
(534,204,cs),
(534,179,o),
(504,165,o),
(441,165,cs),
(362,165,o),
(294,190,o),
(258,245,c),
(5,179,l),
(61,59,o),
(226,-16,o),
(433,-16,cs)
);
}
);
};
guides = (
{
pos = (445,165);
},
{
angle = 355.2415;
pos = (136,212);
}
);
layerId = m01;
shapes = (
{
closed = 1;
nodes = (
(674,-16,o),
(822,83,o),
(822,240,cs),
(822,446,o),
(598,449,o),
(446,456,cs),
(367,459,o),
(307,464,o),
(307,497,cs),
(307,522,o),
(340,535,o),
(392,535,cs),
(451,535,o),
(526,517,o),
(553,473,c),
(812,541,l),
(751,649,o),
(589,716,o),
(391,716,cs),
(165,716,o),
(23,626,o),
(23,469,cs),
(23,275,o),
(239,257,o),
(391,250,cs),
(474,246,o),
(538,240,o),
(538,204,cs),
(538,179,o),
(508,165,o),
(445,165,cs),
(366,165,o),
(298,190,o),
(262,245,c),
(9,179,l),
(65,59,o),
(230,-16,o),
(437,-16,cs)
);
}
);
width = 831;
}
);
unicode = 83;
},
{
glyphname = T;
lastChange = "2025-07-24 08:47:57 +0000";
layers = (
{
layerId = m01;
shapes = (
{
closed = 1;
nodes = (
(496,0,l),
(496,700,l),
(216,700,l),
(216,0,l)
);
},
{
closed = 1;
nodes = (
(701,468,l),
(701,700,l),
(10,700,l),
(10,468,l)
);
}
);
width = 711;
}
);
unicode = 84;
},
{
glyphname = U;
lastChange = "2025-07-24 08:47:57 +0000";
layers = (
{
background = {
shapes = (
{
closed = 1;
nodes = (
(652,-16,o),
(786,92,o),
(786,286,cs),
(786,700,l),
(506,700,l),
(506,307,ls),
(506,234,o),
(475,198,o),
(413,198,cs),
(351,198,o),
(320,234,o),
(320,307,cs),
(320,700,l),
(40,700,l),
(40,286,ls),
(40,92,o),
(174,-16,o),
(413,-16,cs)
);
}
);
};
layerId = m01;
shapes = (
{
closed = 1;
nodes = (
(646,-16,o),
(780,92,o),
(780,286,cs),
(780,700,l),
(500,700,l),
(500,307,ls),
(500,234,o),
(469,198,o),
(407,198,cs),
(345,198,o),
(314,234,o),
(314,307,cs),
(314,700,l),
(34,700,l),
(34,286,ls),
(34,92,o),
(168,-16,o),
(407,-16,cs)
);
}
);
width = 814;
}
);
unicode = 85;
},
{
glyphname = V;
lastChange = "2025-07-24 08:47:57 +0000";
layers = (
{
background = {
shapes = (
{
closed = 1;
nodes = (
(590,0,l),
(850,700,l),
(554,700,l),
(334,0,l)
);
},
{
closed = 1;
nodes = (
(476,0,l),
(266,700,l),
(-30,700,l),
(230,0,l)
);
}
);
};
layerId = m01;
shapes = (
{
closed = 1;
nodes = (
(611,0,l),
(871,700,l),
(575,700,l),
(355,0,l)
);
},
{
closed = 1;
nodes = (
(497,0,l),
(287,700,l),
(-9,700,l),
(251,0,l)
);
}
);
width = 862;
}
);
unicode = 86;
},
{
glyphname = W;
lastChange = "2025-07-24 08:47:57 +0000";
layers = (
{
background = {
shapes = (
{
closed = 1;
nodes = (
(517,0,l),
(640,428,l),
(593,428,l),
(709,0,l),
(1040,0,l),
(1262,700,l),
(976,700,l),
(840,222,l),
(876,221,l),
(746,700,l),
(486,700,l),
(352,231,l),
(393,230,l),
(260,700,l),
(-30,700,l),
(192,0,l)
);
}
);
};
layerId = m01;
shapes = (
{
closed = 1;
nodes = (
(541,0,l),
(664,428,l),
(617,428,l),
(733,0,l),
(1064,0,l),
(1286,700,l),
(1000,700,l),
(864,222,l),
(900,221,l),
(770,700,l),
(510,700,l),
(376,231,l),
(417,230,l),
(284,700,l),
(-6,700,l),
(216,0,l)
);
}
);
width = 1280;
}
);
unicode = 87;
},
{
glyphname = X;
lastChange = "2025-07-24 08:47:57 +0000";
layers = (
{
background = {
shapes = (
{
closed = 1;
nodes = (
(306,0,l),
(397,163,l),
(494,0,l),
(809,0,l),
(576,350,l),
(809,700,l),
(494,700,l),
(444,616,ls),
(421,576,o),
(427,547,o),
(469,500,c),
(436,467,l),
(306,700,l),
(-11,700,l),
(225,350,l),
(-11,0,l)
);
}
);
};
layerId = m01;
shapes = (
{
closed = 1;
nodes = (
(306,0,l),
(397,163,l),
(494,0,l),
(809,0,l),
(576,350,l),
(809,700,l),
(494,700,l),
(397,537,l),
(306,700,l),
(-11,700,l),
(225,350,l),
(-11,0,l)
);
}
);
width = 798;
}
);
unicode = 88;
},
{
glyphname = Y;
lastChange = "2025-07-24 08:47:57 +0000";
layers = (
{
background = {
guides = (
{
angle = 298.4305;
pos = (131,477);
},
{
angle = 61.6687;
pos = (710,477);
}
);
shapes = (
{
closed = 1;
nodes = (
(560,0,l),
(560,272,l),
(830,700,l),
(515,700,l),
(418,531,l),
(327,700,l),
(10,700,l),
(280,277,l),
(280,0,l)
);
}
);
};
guides = (
{
angle = 182.3396;
pos = (109,477);
},
{
angle = 177.6584;
pos = (688,477);
},
{
pos = (258,277);
}
);
layerId = m01;
shapes = (
{
closed = 1;
nodes = (
(538,0,l),
(538,277,l),
(808,700,l),
(493,700,l),
(396,532,l),
(305,700,l),
(-12,700,l),
(258,277,l),
(258,0,l)
);
}
);
width = 797;
}
);
unicode = 89;
},
{
glyphname = Z;
lastChange = "2025-07-24 08:47:57 +0000";
layers = (
{
background = {
guides = (
{
angle = 90;
pos = (726,217);
}
);
shapes = (
{
closed = 1;
nodes = (
(722,513,l),
(722,700,l),
(50,700,l),
(50,483,l),
(353,483,l),
(30,187,l),
(30,0,l),
(726,0,l),
(726,217,l),
(399,217,l)
);
}
);
};
guides = (
{
angle = 174.8056;
pos = (715,217);
}
);
layerId = m01;
shapes = (
{
closed = 1;
nodes = (
(711,513,l),
(711,700,l),
(39,700,l),
(39,483,l),
(342,483,l),
(19,187,l),
(19,0,l),
(715,0,l),
(715,217,l),
(388,217,l)
);
}
);
width = 741;
}
);
unicode = 90;
},
{
glyphname = A.ss01;
kernRight = H;
lastChange = "2025-07-24 08:47:57 +0000";
layers = (
{
background = {
shapes = (
{
closed = 1;
nodes = (
(10,78,o),
(107,0,o),
(257,0,cs),
(726,0,l),
(726,219,l),
(331,219,ls),
(314,219,o),
(304,229,o),
(304,246,cs),
(304,263,o),
(314,273,o),
(331,273,cs),
(726,273,l),
(726,700,l),
(50,700,l),
(50,481,l),
(470,481,l),
(470,427,l),
(257,427,ls),
(72,427,o),
(10,322,o),
(10,214,cs)
);
},
{
closed = 1;
nodes = (
(470,0,l),
(726,0,l),
(726,371,l),
(470,371,l)
);
}
);
};
layerId = m01;
shapes = (
{
closed = 1;
nodes = (
(10,78,o),
(107,0,o),
(257,0,cs),
(726,0,l),
(726,219,l),
(331,219,ls),
(314,219,o),
(304,229,o),
(304,246,cs),
(304,263,o),
(314,273,o),
(331,273,cs),
(726,273,l),
(726,700,l),
(50,700,l),
(50,481,l),
(470,481,l),
(470,427,l),
(257,427,ls),
(72,427,o),
(10,322,o),
(10,214,cs)
);
},
{
closed = 1;
nodes = (
(470,0,l),
(726,0,l),
(726,371,l),
(470,371,l)
);
}
);
width = 766;
}
);
},
{
glyphname = B.ss01;
kernLeft = H;
lastChange = "2025-07-24 08:47:57 +0000";
layers = (
{
background = {
shapes = (
{
closed = 1;
nodes = (
(180,370,l),
(509,370,ls),
(687,370,o),
(746,449,o),
(746,531,cs),
(746,638,o),
(653,700,o),
(509,700,cs),
(180,700,l),
(180,551,l),
(431,550,ls),
(450,550,o),
(462,540,o),
(462,523,cs),
(462,507,o),
(450,496,o),
(431,496,cs),
(180,495,l)
);
},
{
closed = 1;
nodes = (
(431,205,ls),
(450,205,o),
(462,194,o),
(462,177,cs),
(462,160,o),
(450,149,o),
(431,149,cs),
(180,149,l),
(180,0,l),
(509,0,ls),
(653,0,o),
(746,62,o),
(746,169,cs),
(746,251,o),
(687,330,o),
(509,330,cs),
(180,330,l),
(180,205,l)
);
},
{
closed = 1;
nodes = (
(306,0,l),
(306,700,l),
(40,700,l),
(40,0,l)
);
}
);
};
layerId = m01;
shapes = (
{
closed = 1;
nodes = (
(180,370,l),
(509,370,ls),
(687,370,o),
(746,449,o),
(746,531,cs),
(746,638,o),
(653,700,o),
(509,700,cs),
(180,700,l),
(180,551,l),
(431,550,ls),
(450,550,o),
(462,540,o),
(462,523,cs),
(462,507,o),
(450,496,o),
(431,496,cs),
(180,495,l)
);
},
{
closed = 1;
nodes = (
(431,205,ls),
(450,205,o),
(462,194,o),
(462,177,cs),
(462,160,o),
(450,149,o),
(431,149,cs),
(180,149,l),
(180,0,l),
(509,0,ls),
(653,0,o),
(746,62,o),
(746,169,cs),
(746,251,o),
(687,330,o),
(509,330,cs),
(180,330,l),
(180,205,l)
);
},
{
closed = 1;
nodes = (
(306,0,l),
(306,700,l),
(40,700,l),
(40,0,l)
);
}
);
width = 763;
}
);
},
{
glyphname = E.ss01;
lastChange = "2025-07-24 08:47:57 +0000";
layers = (
{
background = {
shapes = (
{
closed = 1;
nodes = (
(366,476,ls),
(346,476,o),
(333,487,o),
(333,503,cs),
(333,520,o),
(346,530,o),
(366,530,cs),
(686,530,l),
(686,700,l),
(274,700,ls),
(120,700,o),
(40,638,o),
(40,531,cs),
(40,449,o),
(84,370,o),
(274,370,cs),
(455,370,l),
(455,330,l),
(274,330,ls),
(84,330,o),
(40,251,o),
(40,169,cs),
(40,62,o),
(120,0,o),
(274,0,cs),
(686,0,l),
(686,170,l),
(366,170,ls),
(346,170,o),
(333,180,o),
(333,197,cs),
(333,213,o),
(346,224,o),
(366,224,cs),
(675,224,l),
(675,476,l)
);
}
);
};
layerId = m01;
shapes = (
{
closed = 1;
nodes = (
(344,476,ls),
(324,476,o),
(311,487,o),
(311,503,cs),
(311,520,o),
(324,530,o),
(344,530,cs),
(664,530,l),
(664,700,l),
(252,700,ls),
(98,700,o),
(18,638,o),
(18,531,cs),
(18,449,o),
(62,370,o),
(252,370,cs),
(433,370,l),
(433,330,l),
(252,330,ls),
(62,330,o),
(18,251,o),
(18,169,cs),
(18,62,o),
(98,0,o),
(252,0,cs),
(664,0,l),
(664,170,l),
(344,170,ls),
(324,170,o),
(311,180,o),
(311,197,cs),
(311,213,o),
(324,224,o),
(344,224,cs),
(653,224,l),
(653,476,l)
);
}
);
width = 696;
}
);
},
{
glyphname = G.ss01;
kernLeft = G.ss01;
lastChange = "2025-07-24 08:47:57 +0000";
layers = (
{
background = {
shapes = (
{
closed = 1;
nodes = (
(37,231,ls),
(37,81,o),
(127,-16,o),
(284,-16,cs),
(410,-16,o),
(531,46,o),
(531,231,cs),
(531,248,l),
(585,248,l),
(585,0,l),
(821,0,l),
(821,433,l),
(347,433,l),
(347,232,ls),
(347,211,o),
(337,198,o),
(320,198,cs),
(303,198,o),
(293,211,o),
(293,232,cs),
(293,459,ls),
(293,486,o),
(304,500,o),
(324,500,cs),
(821,500,l),
(820,700,l),
(254,700,ls),
(113,700,o),
(37,631,o),
(37,504,cs)
);
}
);
};
guides = (
{
angle = 180;
pos = (584,433);
}
);
layerId = m01;
shapes = (
{
closed = 1;
nodes = (
(37,231,ls),
(37,81,o),
(127,-16,o),
(284,-16,cs),
(410,-16,o),
(531,46,o),
(531,231,cs),
(531,248,l),
(585,248,l),
(585,0,l),
(805,0,l),
(805,433,l),
(347,433,l),
(347,232,ls),
(347,211,o),
(337,198,o),
(320,198,cs),
(303,198,o),
(293,211,o),
(293,232,cs),
(293,459,ls),
(293,486,o),
(304,500,o),
(324,500,cs),
(805,500,l),
(804,700,l),
(254,700,ls),
(113,700,o),
(37,631,o),
(37,504,cs)
);
}
);
width = 835;
},
{
associatedMasterId = m01;
background = {
shapes = (
{
closed = 1;
nodes = (
(36,231,ls),
(36,81,o),
(126,-16,o),
(283,-16,cs),
(409,-16,o),
(530,46,o),
(530,231,cs),
(530,248,l),
(584,248,l),
(584,0,l),
(840,0,l),
(840,433,l),
(346,433,l),
(346,232,ls),
(346,211,o),
(336,198,o),
(319,198,cs),
(302,198,o),
(292,211,o),
(292,232,cs),
(292,459,ls),
(292,486,o),
(303,500,o),
(323,500,cs),
(840,500,l),
(839,700,l),
(253,700,ls),
(112,700,o),
(36,631,o),
(36,504,cs)
);
}
);
};
layerId = "225F4F33-5B72-4C10-9AF3-E2D6AFA1C198";
name = "10 Jul 25 at 12:55";
shapes = (
{
closed = 1;
nodes = (
(769,221,ls),
(769,367,o),
(690,446,o),
(544,446,cs),
(346,446,l),
(346,254,l),
(529,254,ls),
(545,254,o),
(554,245,o),
(554,229,cs),
(554,200,l),
(283,200,l),
(283,475,ls),
(283,491,o),
(292,500,o),
(308,500,cs),
(773,500,l),
(773,700,l),
(207,700,ls),
(97,700,o),
(37,640,o),
(37,530,cs),
(37,0,l),
(769,0,l)
);
}
);
width = 803;
}
);
},
{
glyphname = H.ss01;
kernLeft = G.ss01;
lastChange = "2025-07-24 08:47:57 +0000";
layers = (
{
background = {
shapes = (
{
closed = 1;
nodes = (
(317,473,ls),
(317,489,o),
(326,498,o),
(342,498,cs),
(717,498,l),
(717,700,l),
(207,700,ls),
(97,700,o),
(37,640,o),
(37,530,cs),
(37,0,l),
(317,0,l)
);
},
{
closed = 1;
nodes = (
(301,204,l),
(412,204,ls),
(428,204,o),
(437,195,o),
(437,179,cs),
(437,0,l),
(717,0,l),
(717,234,ls),
(717,344,o),
(657,404,o),
(547,404,cs),
(301,404,l)
);
}
);
};
guides = (
{
pos = (530,498);
},
{
angle = 180;
pos = (584,433);
}
);
layerId = m01;
shapes = (
{
closed = 1;
nodes = (
(317,473,ls),
(317,489,o),
(326,498,o),
(342,498,cs),
(717,498,l),
(717,700,l),
(207,700,ls),
(97,700,o),
(37,640,o),
(37,530,cs),
(37,0,l),
(317,0,l)
);
},
{
closed = 1;
nodes = (
(301,233,l),
(412,233,ls),
(428,233,o),
(437,224,o),
(437,208,cs),
(437,0,l),
(717,0,l),
(717,263,ls),
(717,373,o),
(657,433,o),
(547,433,cs),
(301,433,l)
);
}
);
width = 751;
},
{
associatedMasterId = m01;
background = {
shapes = (
{
closed = 1;
nodes = (
(277,473,ls),
(277,489,o),
(286,498,o),
(302,498,cs),
(677,498,l),
(677,700,l),
(167,700,ls),
(57,700,o),
(-3,640,o),
(-3,530,cs),
(-3,0,l),
(277,0,l)
);
},
{
closed = 1;
nodes = (
(261,204,l),
(372,204,ls),
(388,204,o),
(397,195,o),
(397,179,cs),
(397,0,l),
(677,0,l),
(677,234,ls),
(677,344,o),
(617,404,o),
(507,404,cs),
(261,404,l)
);
}
);
};
layerId = "FBDF7034-0639-4695-A401-69195B1E3B2A";
name = "10 Jul 25 at 14:39";
shapes = (
{
closed = 1;
nodes = (
(317,473,ls),
(317,489,o),
(326,498,o),
(342,498,cs),
(677,498,l),
(677,700,l),
(207,700,ls),
(97,700,o),
(37,640,o),
(37,530,cs),
(37,0,l),
(317,0,l)
);
},
{
closed = 1;
nodes = (
(301,244,l),
(372,244,ls),
(388,244,o),
(397,235,o),
(397,219,cs),
(397,0,l),
(677,0,l),
(677,274,ls),
(677,384,o),
(617,444,o),
(507,444,cs),
(301,444,l)
);
}
);
width = 711;
}
);
},
{
glyphname = J.ss01;
lastChange = "2025-07-24 08:47:57 +0000";
layers = (
{
background = {
guides = (
{
pos = (530,498);
}
);
shapes = (
{
closed = 1;
nodes = (
(35,231,ls),
(35,71,o),
(147,-16,o),
(351,-16,cs),
(555,-16,o),
(667,71,o),
(667,231,cs),
(667,700,l),
(411,700,l),
(411,272,ls),
(411,222,o),
(391,198,o),
(351,198,cs),
(311,198,o),
(291,222,o),
(291,272,cs),
(291,404,l),
(35,404,l)
);
},
{
closed = 1;
nodes = (
(35,498,l),
(587,498,l),
(587,700,l),
(35,700,l)
);
}
);
};
guides = (
{
angle = 180;
pos = (584,433);
}
);
layerId = m01;
shapes = (
{
closed = 1;
nodes = (
(35,231,ls),
(35,71,o),
(147,-16,o),
(351,-16,cs),
(555,-16,o),
(667,71,o),
(667,231,cs),
(667,700,l),
(411,700,l),
(411,272,ls),
(411,222,o),
(391,198,o),
(351,198,cs),
(311,198,o),
(291,222,o),
(291,272,cs),
(291,433,l),
(35,433,l)
);
},
{
closed = 1;
nodes = (
(35,498,l),
(587,498,l),
(587,700,l),
(35,700,l)
);
}
);
width = 703;
},
{
associatedMasterId = m01;
background = {
guides = (
{
pos = (530,498);
}
);
shapes = (
{
closed = 1;
nodes = (
(35,231,ls),
(35,71,o),
(147,-16,o),
(351,-16,cs),
(555,-16,o),
(667,71,o),
(667,231,cs),
(667,700,l),
(411,700,l),
(411,272,ls),
(411,222,o),
(391,198,o),
(351,198,cs),
(311,198,o),
(291,222,o),
(291,272,cs),
(291,404,l),
(35,404,l)
);
},
{
closed = 1;
nodes = (
(35,498,l),
(587,498,l),
(587,700,l),
(35,700,l)
);
}
);
};
layerId = "9ECDCA94-D6BF-4FC1-9EA5-0F7BBEACBC1B";
name = "10 Jul 25 at 14:41";
shapes = (
{
closed = 1;
nodes = (
(35,221,ls),
(35,62,o),
(131,-16,o),
(329,-16,cs),
(527,-16,o),
(623,62,o),
(623,221,cs),
(623,700,l),
(367,700,l),
(367,242,ls),
(367,215,o),
(353,198,o),
(329,198,cs),
(305,198,o),
(291,215,o),
(291,242,cs),
(291,470,l),
(35,470,l)
);
},
{
closed = 1;
nodes = (
(35,528,l),
(543,528,l),
(543,700,l),
(35,700,l)
);
}
);
width = 659;
}
);
},
{
glyphname = K.ss01;
kernLeft = H;
lastChange = "2025-07-24 08:47:57 +0000";
layers = (
{
background = {
shapes = (
{
closed = 1;
nodes = (
(320,0,l),
(320,700,l),
(40,700,l),
(40,0,l)
);
},
{
closed = 1;
nodes = (
(439,700,l),
(439,591,ls),
(439,565,o),
(430,554,o),
(408,554,cs),
(190,554,l),
(190,373,l),
(508,373,ls),
(649,373,o),
(725,442,o),
(725,569,cs),
(725,700,l)
);
},
{
closed = 1;
nodes = (
(726,0,l),
(726,137,ls),
(726,264,o),
(650,333,o),
(509,333,cs),
(191,333,l),
(191,152,l),
(409,152,ls),
(431,152,o),
(440,141,o),
(440,115,cs),
(440,0,l)
);
}
);
};
layerId = m01;
shapes = (
{
closed = 1;
nodes = (
(320,0,l),
(320,700,l),
(40,700,l),
(40,0,l)
);
},
{
closed = 1;
nodes = (
(439,700,l),
(439,591,ls),
(439,565,o),
(430,554,o),
(408,554,cs),
(190,554,l),
(190,373,l),
(508,373,ls),
(649,373,o),
(725,442,o),
(725,569,cs),
(725,700,l)
);
},
{
closed = 1;
nodes = (
(726,0,l),
(726,137,ls),
(726,264,o),
(650,333,o),
(509,333,cs),
(191,333,l),
(191,152,l),
(409,152,ls),
(431,152,o),
(440,141,o),
(440,115,cs),
(440,0,l)
);
}
);
width = 750;
},
{
associatedMasterId = m01;
background = {
shapes = (
{
closed = 1;
nodes = (
(320,0,l),
(320,700,l),
(40,700,l),
(40,0,l)
);
},
{
closed = 1;
nodes = (
(400,700,l),
(400,591,ls),
(400,565,o),
(391,554,o),
(369,554,cs),
(190,554,l),
(190,373,l),
(469,373,ls),
(610,373,o),
(686,442,o),
(686,569,cs),
(686,700,l)
);
},
{
closed = 1;
nodes = (
(687,0,l),
(687,137,ls),
(687,264,o),
(611,333,o),
(470,333,cs),
(191,333,l),
(191,152,l),
(370,152,ls),
(392,152,o),
(401,141,o),
(401,115,cs),
(401,0,l)
);
}
);
};
layerId = "C8EF5204-D595-426C-8B4C-02A1445B5EF0";
name = "10 Jul 25 at 14:41";
shapes = (
{
closed = 1;
nodes = (
(320,0,l),
(320,700,l),
(40,700,l),
(40,0,l)
);
},
{
closed = 1;
nodes = (
(400,700,l),
(400,591,ls),
(400,565,o),
(391,554,o),
(369,554,cs),
(190,554,l),
(190,373,l),
(469,373,ls),
(610,373,o),
(686,442,o),
(686,569,cs),
(686,700,l)
);
},
{
closed = 1;
nodes = (
(687,0,l),
(687,137,ls),
(687,264,o),
(611,333,o),
(470,333,cs),
(191,333,l),
(191,152,l),
(370,152,ls),
(392,152,o),
(401,141,o),
(401,115,cs),
(401,0,l)
);
}
);
width = 711;
},
{
associatedMasterId = m01;
background = {
shapes = (
{
closed = 1;
nodes = (
(320,0,l),
(320,700,l),
(40,700,l),
(40,0,l)
);
},
{
closed = 1;
nodes = (
(439,700,l),
(439,591,ls),
(439,565,o),
(430,554,o),
(408,554,cs),
(190,554,l),
(190,373,l),
(508,373,ls),
(649,373,o),
(725,442,o),
(725,569,cs),
(725,700,l)
);
},
{
closed = 1;
nodes = (
(726,0,l),
(726,137,ls),
(726,264,o),
(650,333,o),
(509,333,cs),
(191,333,l),
(191,152,l),
(409,152,ls),
(431,152,o),
(440,141,o),
(440,115,cs),
(440,0,l)
);
}
);
};
layerId = "E1F2C330-2FBD-4C10-8CFC-BBC3023B03C6";
name = "10 Jul 25 at 14:42";
shapes = (
{
closed = 1;
nodes = (
(320,0,l),
(320,700,l),
(40,700,l),
(40,0,l)
);
},
{
closed = 1;
nodes = (
(400,700,l),
(400,591,ls),
(400,565,o),
(391,554,o),
(369,554,cs),
(190,554,l),
(190,373,l),
(469,373,ls),
(610,373,o),
(686,442,o),
(686,569,cs),
(686,700,l)
);
},
{
closed = 1;
nodes = (
(687,0,l),
(687,137,ls),
(687,264,o),
(611,333,o),
(470,333,cs),
(191,333,l),
(191,152,l),
(370,152,ls),
(392,152,o),
(401,141,o),
(401,115,cs),
(401,0,l)
);
}
);
width = 711;
}
);
},
{
glyphname = M.ss01;
kernLeft = N.ss01;
kernRight = H;
lastChange = "2025-07-24 08:47:57 +0000";
layers = (
{
background = {
guides = (
{
pos = (1012,284);
}
);
shapes = (
{
closed = 1;
nodes = (
(348,0,l),
(841,0,l),
(841,462,l),
(904,462,l),
(904,0,l),
(1150,0,l),
(1150,700,l),
(626,700,l),
(626,236,l),
(563,236,l),
(563,479,ls),
(563,626,o),
(464,716,o),
(302,716,cs),
(139,716,o),
(40,626,o),
(40,479,cs),
(40,0,l),
(285,0,l),
(285,444,ls),
(285,463,o),
(296,474,o),
(316,474,cs),
(335,474,o),
(348,463,o),
(348,444,cs)
);
}
);
};
guides = (
{
angle = 180;
pos = (1008,284);
}
);
layerId = m01;
shapes = (
{
closed = 1;
nodes = (
(344,0,l),
(837,0,l),
(837,462,l),
(900,462,l),
(900,0,l),
(1146,0,l),
(1146,700,l),
(622,700,l),
(622,236,l),
(559,236,l),
(559,479,ls),
(559,626,o),
(460,716,o),
(298,716,cs),
(135,716,o),
(36,626,o),
(36,479,cs),
(36,0,l),
(281,0,l),
(281,444,ls),
(281,463,o),
(292,474,o),
(312,474,cs),
(331,474,o),
(344,463,o),
(344,444,cs)
);
}
);
width = 1186;
}
);
},
{
glyphname = N.ss01;
kernLeft = N.ss01;
kernRight = H;
lastChange = "2025-07-24 08:47:57 +0000";
layers = (
{
background = {
shapes = (
{
closed = 1;
nodes = (
(296,0,l),
(296,468,ls),
(296,489,o),
(306,502,o),
(323,502,cs),
(340,502,o),
(350,489,o),
(350,468,cs),
(350,0,l),
(844,0,l),
(844,700,l),
(588,700,l),
(588,202,l),
(534,202,l),
(534,487,ls),
(534,630,o),
(440,716,o),
(287,716,cs),
(134,716,o),
(40,630,o),
(40,487,cs),
(40,0,l)
);
}
);
};
layerId = m01;
shapes = (
{
closed = 1;
nodes = (
(292,0,l),
(292,468,ls),
(292,489,o),
(302,502,o),
(319,502,cs),
(336,502,o),
(346,489,o),
(346,468,cs),
(346,0,l),
(840,0,l),
(840,700,l),
(584,700,l),
(584,202,l),
(530,202,l),
(530,487,ls),
(530,630,o),
(436,716,o),
(283,716,cs),
(130,716,o),
(36,630,o),
(36,487,cs),
(36,0,l)
);
}
);
width = 880;
}
);
},
{
glyphname = U.ss01;
lastChange = "2025-07-24 08:47:57 +0000";
layers = (
{
layerId = m01;
shapes = (
{
closed = 1;
nodes = (
(509,-16,o),
(604,63,o),
(604,221,cs),
(604,700,l),
(348,700,l),
(348,232,ls),
(348,211,o),
(337,198,o),
(319,198,cs),
(301,198,o),
(290,211,o),
(290,232,cs),
(290,700,l),
(34,700,l),
(34,221,ls),
(34,63,o),
(129,-16,o),
(319,-16,cs)
);
}
);
width = 638;
}
);
},
{
glyphname = V.ss01;
lastChange = "2025-07-24 08:47:57 +0000";
layers = (
{
layerId = m01;
shapes = (
{
closed = 1;
nodes = (
(516,0,o),
(610,79,o),
(610,237,cs),
(610,700,l),
(354,700,l),
(354,248,ls),
(354,227,o),
(344,214,o),
(327,214,cs),
(296,214,l),
(296,700,l),
(40,700,l),
(40,0,l),
(327,0,ls)
);
}
);
width = 644;
}
);
},
{
glyphname = X.ss01;
lastChange = "2025-07-24 08:47:57 +0000";
layers = (
{
background = {
shapes = (
{
closed = 1;
nodes = (
(435,691,l),
(435,582,ls),
(435,556,o),
(426,545,o),
(404,545,cs),
(186,545,l),
(186,364,l),
(504,364,ls),
(645,364,o),
(721,433,o),
(721,560,cs),
(721,691,l)
);
}
);
};
layerId = m01;
shapes = (
{
closed = 1;
nodes = (
(474,364,ls),
(633,364,o),
(720,433,o),
(720,560,cs),
(720,700,l),
(434,700,l),
(434,614,ls),
(434,568,o),
(413,543,o),
(374,543,cs),
(335,543,o),
(314,568,o),
(314,614,cs),
(314,700,l),
(28,700,l),
(28,560,ls),
(28,433,o),
(115,364,o),
(274,364,cs)
);
},
{
closed = 1;
nodes = (
(314,0,l),
(314,86,ls),
(314,132,o),
(335,157,o),
(374,157,cs),
(413,157,o),
(434,132,o),
(434,86,cs),
(434,0,l),
(720,0,l),
(720,140,ls),
(720,267,o),
(633,336,o),
(474,336,cs),
(274,336,ls),
(115,336,o),
(28,267,o),
(28,140,cs),
(28,0,l)
);
},
{
closed = 1;
nodes = (
(499,258,l),
(499,442,l),
(250,442,l),
(250,258,l)
);
}
);
width = 748;
},
{
associatedMasterId = m01;
background = {
shapes = (
{
closed = 1;
nodes = (
(457,364,ls),
(598,364,o),
(674,433,o),
(674,560,cs),
(674,700,l),
(388,700,l),
(388,564,ls),
(388,537,o),
(377,523,o),
(357,523,cs),
(337,523,o),
(326,537,o),
(326,564,cs),
(326,700,l),
(40,700,l),
(40,560,ls),
(40,433,o),
(116,364,o),
(257,364,cs)
);
},
{
closed = 1;
nodes = (
(326,0,l),
(326,136,ls),
(326,163,o),
(337,177,o),
(357,177,cs),
(377,177,o),
(388,163,o),
(388,136,cs),
(388,0,l),
(674,0,l),
(674,140,ls),
(674,267,o),
(598,336,o),
(457,336,cs),
(257,336,ls),
(116,336,o),
(40,267,o),
(40,140,cs),
(40,0,l)
);
},
{
closed = 1;
nodes = (
(482,258,l),
(482,442,l),
(233,442,l),
(233,258,l)
);
}
);
};
layerId = "4B59725A-0867-4DB0-8A5A-782AD0685FA7";
name = "10 Jul 25 at 14:43";
shapes = (
{
closed = 1;
nodes = (
(445,364,ls),
(586,364,o),
(662,433,o),
(662,560,cs),
(662,700,l),
(376,700,l),
(376,564,ls),
(376,537,o),
(365,523,o),
(345,523,cs),
(325,523,o),
(314,537,o),
(314,564,cs),
(314,700,l),
(28,700,l),
(28,560,ls),
(28,433,o),
(104,364,o),
(245,364,cs)
);
},
{
closed = 1;
nodes = (
(314,0,l),
(314,136,ls),
(314,163,o),
(325,177,o),
(345,177,cs),
(365,177,o),
(376,163,o),
(376,136,cs),
(376,0,l),
(662,0,l),
(662,140,ls),
(662,267,o),
(586,336,o),
(445,336,cs),
(245,336,ls),
(104,336,o),
(28,267,o),
(28,140,cs),
(28,0,l)
);
},
{
closed = 1;
nodes = (
(470,258,l),
(470,442,l),
(221,442,l),
(221,258,l)
);
}
);
width = 690;
},
{
associatedMasterId = m01;
background = {
shapes = (
{
closed = 1;
nodes = (
(474,364,ls),
(633,364,o),
(720,433,o),
(720,560,cs),
(720,700,l),
(434,700,l),
(434,594,ls),
(434,548,o),
(413,523,o),
(374,523,cs),
(335,523,o),
(314,548,o),
(314,594,cs),
(314,700,l),
(28,700,l),
(28,560,ls),
(28,433,o),
(115,364,o),
(274,364,cs)
);
},
{
closed = 1;
nodes = (
(314,0,l),
(314,106,ls),
(314,152,o),
(335,177,o),
(374,177,cs),
(413,177,o),
(434,152,o),
(434,106,cs),
(434,0,l),
(720,0,l),
(720,140,ls),
(720,267,o),
(633,336,o),
(474,336,cs),
(274,336,ls),
(115,336,o),
(28,267,o),
(28,140,cs),
(28,0,l)
);
},
{
closed = 1;
nodes = (
(499,258,l),
(499,442,l),
(250,442,l),
(250,258,l)
);
}
);
};
layerId = "B9A5A302-C962-402F-A456-AFC0EB1B189C";
name = "10 Jul 25 at 14:44";
shapes = (
{
closed = 1;
nodes = (
(445,364,ls),
(586,364,o),
(662,433,o),
(662,560,cs),
(662,700,l),
(376,700,l),
(376,564,ls),
(376,537,o),
(365,523,o),
(345,523,cs),
(325,523,o),
(314,537,o),
(314,564,cs),
(314,700,l),
(28,700,l),
(28,560,ls),
(28,433,o),
(104,364,o),
(245,364,cs)
);
},
{
closed = 1;
nodes = (
(314,0,l),
(314,136,ls),
(314,163,o),
(325,177,o),
(345,177,cs),
(365,177,o),
(376,163,o),
(376,136,cs),
(376,0,l),
(662,0,l),
(662,140,ls),
(662,267,o),
(586,336,o),
(445,336,cs),
(245,336,ls),
(104,336,o),
(28,267,o),
(28,140,cs),
(28,0,l)
);
},
{
closed = 1;
nodes = (
(470,258,l),
(470,442,l),
(221,442,l),
(221,258,l)
);
}
);
width = 690;
}
);
},
{
glyphname = Y.ss01;
kernRight = H;
lastChange = "2025-07-24 08:47:57 +0000";
layers = (
{
background = {
shapes = (
{
closed = 1;
nodes = (
(32,231,ls),
(32,81,o),
(122,-16,o),
(279,-16,cs),
(405,-16,o),
(526,46,o),
(526,231,cs),
(526,318,l),
(580,318,l),
(580,0,l),
(836,0,l),
(836,490,l),
(342,490,l),
(342,232,ls),
(342,211,o),
(332,198,o),
(315,198,cs),
(298,198,o),
(288,211,o),
(288,232,cs),
(288,490,l),
(32,450,l)
);
},
{
closed = 1;
nodes = (
(836,557,l),
(835,786,l),
(249,786,ls),
(108,786,o),
(32,717,o),
(32,590,cs),
(32,450,l),
(288,490,l),
(288,516,ls),
(288,543,o),
(299,557,o),
(319,557,cs)
);
}
);
};
layerId = m01;
shapes = (
{
closed = 1;
nodes = (
(32,481,ls),
(32,331,o),
(122,234,o),
(279,234,cs),
(405,234,o),
(526,296,o),
(526,481,cs),
(526,528,l),
(580,528,l),
(580,0,l),
(836,0,l),
(836,700,l),
(342,700,l),
(342,482,ls),
(342,461,o),
(332,448,o),
(315,448,cs),
(298,448,o),
(288,461,o),
(288,482,cs),
(288,700,l),
(32,700,l)
);
},
{
closed = 1;
nodes = (
(32,0,l),
(726,0,l),
(726,202,l),
(32,202,l)
);
}
);
width = 876;
}
);
},
{
glyphname = Z.ss01;
lastChange = "2025-07-24 08:47:57 +0000";
layers = (
{
background = {
shapes = (
{
closed = 1;
nodes = (
(30,78,o),
(127,0,o),
(277,0,cs),
(756,0,l),
(756,219,l),
(351,219,ls),
(334,219,o),
(324,229,o),
(324,246,cs),
(324,263,o),
(334,273,o),
(351,273,cs),
(519,273,ls),
(704,273,o),
(766,378,o),
(766,486,cs),
(766,622,o),
(669,700,o),
(519,700,cs),
(70,700,l),
(70,481,l),
(445,481,ls),
(462,481,o),
(472,471,o),
(472,454,cs),
(472,437,o),
(462,427,o),
(445,427,cs),
(277,427,ls),
(92,427,o),
(30,322,o),
(30,214,cs)
);
}
);
};
layerId = m01;
shapes = (
{
closed = 1;
nodes = (
(10,78,o),
(107,0,o),
(257,0,cs),
(736,0,l),
(736,219,l),
(331,219,ls),
(314,219,o),
(304,229,o),
(304,246,cs),
(304,263,o),
(314,273,o),
(331,273,cs),
(499,273,ls),
(684,273,o),
(746,378,o),
(746,486,cs),
(746,622,o),
(649,700,o),
(499,700,cs),
(50,700,l),
(50,481,l),
(425,481,ls),
(442,481,o),
(452,471,o),
(452,454,cs),
(452,437,o),
(442,427,o),
(425,427,cs),
(257,427,ls),
(72,427,o),
(10,322,o),
(10,214,cs)
);
}
);
width = 767;
}
);
},
{
glyphname = E.ss02;
lastChange = "2025-07-24 08:47:57 +0000";
layers = (
{
background = {
shapes = (
{
closed = 1;
nodes = (
(366,476,ls),
(345,476,o),
(334,487,o),
(334,504,cs),
(334,521,o),
(345,530,o),
(366,530,cs),
(686,530,l),
(686,700,l),
(278,700,ls),
(124,700,o),
(40,638,o),
(40,531,cs),
(40,449,o),
(88,370,o),
(278,370,cs),
(446,370,l),
(446,330,l),
(51,330,l),
(51,0,l),
(686,0,l),
(686,170,l),
(334,170,l),
(334,224,l),
(675,224,l),
(675,476,l)
);
}
);
};
layerId = m01;
shapes = (
{
closed = 1;
nodes = (
(349,476,ls),
(328,476,o),
(317,487,o),
(317,504,cs),
(317,521,o),
(328,530,o),
(349,530,cs),
(669,530,l),
(669,700,l),
(261,700,ls),
(107,700,o),
(23,638,o),
(23,531,cs),
(23,449,o),
(71,370,o),
(261,370,cs),
(429,370,l),
(429,330,l),
(34,330,l),
(34,0,l),
(669,0,l),
(669,170,l),
(317,170,l),
(317,224,l),
(658,224,l),
(658,476,l)
);
}
);
width = 701;
}
);
},
{
glyphname = J.ss02;
kernRight = J;
lastChange = "2025-07-24 08:47:57 +0000";
layers = (
{
background = {
guides = (
{
angle = 168.69;
pos = (148,287);
}
);
shapes = (
{
closed = 1;
nodes = (
(623,-16,o),
(762,92,o),
(762,286,cs),
(762,700,l),
(482,700,l),
(482,323,ls),
(482,250,o),
(451,214,o),
(389,214,cs),
(329,214,o),
(287,251,o),
(275,312,c),
(20,261,l),
(52,83,o),
(179,-16,o),
(390,-16,cs)
);
}
);
};
guides = (
{
angle = 179.6373;
pos = (118,287);
}
);
layerId = m01;
shapes = (
{
closed = 1;
nodes = (
(593,-16,o),
(732,92,o),
(732,286,cs),
(732,700,l),
(452,700,l),
(452,323,ls),
(452,250,o),
(421,214,o),
(359,214,cs),
(299,214,o),
(257,251,o),
(245,312,c),
(-10,261,l),
(22,83,o),
(149,-16,o),
(360,-16,cs)
);
}
);
width = 766;
}
);
},
{
glyphname = Z.ss02;
lastChange = "2025-07-24 08:47:57 +0000";
layers = (
{
background = {
shapes = (
{
closed = 1;
nodes = (
(30,0,l),
(756,0,l),
(756,219,l),
(324,219,l),
(324,246,ls),
(324,263,o),
(334,273,o),
(351,273,cs),
(519,273,ls),
(704,273,o),
(766,378,o),
(766,486,cs),
(766,622,o),
(669,700,o),
(519,700,cs),
(70,700,l),
(70,481,l),
(445,481,ls),
(462,481,o),
(472,471,o),
(472,454,cs),
(472,437,o),
(462,427,o),
(445,427,cs),
(277,427,ls),
(92,427,o),
(30,322,o),
(30,214,cs)
);
}
);
};
layerId = m01;
shapes = (
{
closed = 1;
nodes = (
(20,0,l),
(746,0,l),
(746,219,l),
(314,219,l),
(314,246,ls),
(314,263,o),
(324,273,o),
(341,273,cs),
(509,273,ls),
(694,273,o),
(756,378,o),
(756,486,cs),
(756,622,o),
(659,700,o),
(509,700,cs),
(60,700,l),
(60,481,l),
(435,481,ls),
(452,481,o),
(462,471,o),
(462,454,cs),
(462,437,o),
(452,427,o),
(435,427,cs),
(267,427,ls),
(82,427,o),
(20,322,o),
(20,214,cs)
);
}
);
width = 777;
}
);
},
{
glyphname = a;
lastChange = "2025-07-24 08:47:57 +0000";
layers = (
{
background = {
shapes = (
{
closed = 1;
nodes = (
(316,-16,o),
(378,22,o),
(413,93,c),
(421,93,l),
(421,0,l),
(671,0,l),
(671,500,l),
(421,500,l),
(421,407,l),
(413,407,l),
(378,478,o),
(316,516,o),
(239,516,cs),
(112,516,o),
(15,415,o),
(15,272,cs),
(15,228,ls),
(15,85,o),
(112,-16,o),
(239,-16,cs)
);
},
{
closed = 1;
nodes = (
(304,165,o),
(273,193,o),
(273,228,cs),
(273,272,ls),
(273,307,o),
(304,335,o),
(342,335,cs),
(382,335,o),
(411,307,o),
(411,272,cs),
(411,228,ls),
(411,193,o),
(382,165,o),
(342,165,cs)
);
}
);
};
layerId = m01;
shapes = (
{
closed = 1;
nodes = (
(318,-16,o),
(380,22,o),
(415,93,c),
(423,93,l),
(423,0,l),
(673,0,l),
(673,500,l),
(423,500,l),
(423,407,l),
(415,407,l),
(380,478,o),
(318,516,o),
(241,516,cs),
(114,516,o),
(17,415,o),
(17,272,cs),
(17,228,ls),
(17,85,o),
(114,-16,o),
(241,-16,cs)
);
},
{
closed = 1;
nodes = (
(306,165,o),
(275,193,o),
(275,228,cs),
(275,272,ls),
(275,307,o),
(306,335,o),
(344,335,cs),
(384,335,o),
(413,307,o),
(413,272,cs),
(413,228,ls),
(413,193,o),
(384,165,o),
(344,165,cs)
);
}
);
width = 707;
}
);
unicode = 97;
},
{
glyphname = b;
kernLeft = h;
kernRight = b;
lastChange = "2025-07-24 08:47:57 +0000";
layers = (
{
background = {
shapes = (
{
closed = 1;
nodes = (
(402,335,o),
(433,307,o),
(433,272,cs),
(433,228,ls),
(433,193,o),
(402,165,o),
(364,165,cs),
(324,165,o),
(295,193,o),
(295,228,cs),
(295,272,ls),
(295,307,o),
(324,335,o),
(364,335,cs)
);
},
{
closed = 1;
nodes = (
(35,0,l),
(285,0,l),
(285,93,l),
(293,93,l),
(328,22,o),
(390,-16,o),
(467,-16,cs),
(594,-16,o),
(691,85,o),
(691,228,cs),
(691,272,ls),
(691,414,o),
(594,516,o),
(467,516,cs),
(391,516,o),
(330,476,o),
(295,413,c),
(295,700,l),
(35,700,l)
);
}
);
};
layerId = m01;
shapes = (
{
closed = 1;
nodes = (
(401,335,o),
(432,307,o),
(432,272,cs),
(432,228,ls),
(432,193,o),
(401,165,o),
(363,165,cs),
(323,165,o),
(294,193,o),
(294,228,cs),
(294,272,ls),
(294,307,o),
(323,335,o),
(363,335,cs)
);
},
{
closed = 1;
nodes = (
(34,0,l),
(284,0,l),
(284,93,l),
(292,93,l),
(327,22,o),
(389,-16,o),
(466,-16,cs),
(593,-16,o),
(690,85,o),
(690,228,cs),
(690,272,ls),
(690,414,o),
(593,516,o),
(466,516,cs),
(390,516,o),
(329,476,o),
(294,413,c),
(294,700,l),
(34,700,l)
);
}
);
width = 707;
}
);
unicode = 98;
},
{
glyphname = c;
kernLeft = o;
lastChange = "2025-07-24 08:47:57 +0000";
layers = (
{
background = {
shapes = (
{
closed = 1;
nodes = (
(15,228,ls),
(15,86,o),
(143,-16,o),
(326,-16,cs),
(488,-16,o),
(603,66,o),
(626,186,c),
(390,223,l),
(382,188,o),
(362,161,o),
(326,161,cs),
(288,161,o),
(259,189,o),
(259,224,cs),
(259,276,ls),
(259,311,o),
(288,339,o),
(326,339,cs),
(362,339,o),
(382,312,o),
(390,277,c),
(626,314,l),
(603,434,o),
(488,516,o),
(326,516,cs),
(143,516,o),
(15,414,o),
(15,272,cs)
);
}
);
};
layerId = m01;
shapes = (
{
closed = 1;
nodes = (
(16,228,ls),
(16,86,o),
(144,-16,o),
(327,-16,cs),
(489,-16,o),
(604,66,o),
(627,186,c),
(391,223,l),
(383,188,o),
(363,161,o),
(327,161,cs),
(289,161,o),
(260,189,o),
(260,224,cs),
(260,276,ls),
(260,311,o),
(289,339,o),
(327,339,cs),
(363,339,o),
(383,312,o),
(391,277,c),
(627,314,l),
(604,434,o),
(489,516,o),
(327,516,cs),
(144,516,o),
(16,414,o),
(16,272,cs)
);
}
);
width = 632;
}
);
unicode = 99;
},
{
glyphname = e;
kernLeft = o;
lastChange = "2025-07-24 08:47:57 +0000";
layers = (
{
background = {
guides = (
{
angle = 90;
pos = (639,149);
},
{
pos = (283,145);
},
{
pos = (375,355);
}
);
shapes = (
{
closed = 1;
nodes = (
(375,197,l),
(437,219,l),
(427,177,o),
(381,145,o),
(334,145,cs),
(287,145,o),
(255,178,o),
(255,220,cs),
(255,280,ls),
(255,322,o),
(287,355,o),
(330,355,cs),
(372,355,o),
(404,322,o),
(404,280,cs),
(404,261,l),
(643,261,l),
(643,272,ls),
(643,414,o),
(513,516,o),
(330,516,cs),
(145,516,o),
(15,414,o),
(15,272,cs),
(15,228,ls),
(15,85,o),
(145,-16,o),
(330,-16,cs),
(468,-16,o),
(582,40,o),
(643,143,c)
);
},
{
closed = 1;
nodes = (
(119,213,l),
(643,213,l),
(643,261,l),
(569,299,l),
(119,299,l)
);
}
);
};
guides = (
{
angle = 45;
pos = (640,149);
},
{
pos = (284,145);
},
{
pos = (376,355);
}
);
layerId = m01;
shapes = (
{
closed = 1;
nodes = (
(376,197,l),
(438,219,l),
(428,177,o),
(382,145,o),
(335,145,cs),
(288,145,o),
(256,178,o),
(256,220,cs),
(256,280,ls),
(256,322,o),
(288,355,o),
(331,355,cs),
(373,355,o),
(405,322,o),
(405,280,cs),
(405,261,l),
(644,261,l),
(644,272,ls),
(644,414,o),
(514,516,o),
(331,516,cs),
(146,516,o),
(16,414,o),
(16,272,cs),
(16,228,ls),
(16,85,o),
(146,-16,o),
(331,-16,cs),
(469,-16,o),
(583,40,o),
(644,143,c)
);
},
{
closed = 1;
nodes = (
(120,213,l),
(644,213,l),
(644,261,l),
(570,299,l),
(120,299,l)
);
}
);
width = 660;
}
);
unicode = 101;
},
{
glyphname = f;
lastChange = "2025-07-24 08:47:57 +0000";
layers = (
{
background = {
guides = (
{
pos = (530,716);
}
);
shapes = (
{
closed = 1;
nodes = (
(85,0,l),
(345,0,l),
(345,500,ls),
(345,565,o),
(423,561,o),
(485,546,c),
(485,697,l),
(440,709,o),
(390,716,o),
(341,716,cs),
(210,716,o),
(85,664,o),
(85,500,cs)
);
},
{
closed = 1;
nodes = (
(5,310,l),
(485,310,l),
(485,500,l),
(5,500,l)
);
}
);
};
guides = (
{
pos = (537,716);
}
);
layerId = m01;
shapes = (
{
closed = 1;
nodes = (
(92,0,l),
(352,0,l),
(352,500,ls),
(352,565,o),
(430,561,o),
(492,546,c),
(492,697,l),
(447,709,o),
(397,716,o),
(348,716,cs),
(217,716,o),
(92,664,o),
(92,500,cs)
);
},
{
closed = 1;
nodes = (
(12,310,l),
(492,310,l),
(492,500,l),
(12,500,l)
);
}
);
width = 503;
}
);
unicode = 102;
},
{
glyphname = g;
lastChange = "2025-07-24 08:47:57 +0000";
layers = (
{
background = {
shapes = (
{
closed = 1;
nodes = (
(304,201,o),
(273,229,o),
(273,264,cs),
(273,272,ls),
(273,307,o),
(304,335,o),
(342,335,cs),
(382,335,o),
(411,307,o),
(411,272,cs),
(411,264,ls),
(411,229,o),
(382,201,o),
(342,201,cs)
);
},
{
closed = 1;
nodes = (
(671,500,l),
(421,500,l),
(421,407,l),
(413,407,l),
(378,478,o),
(316,516,o),
(239,516,cs),
(112,516,o),
(15,415,o),
(15,272,cs),
(15,264,ls),
(15,122,o),
(112,20,o),
(239,20,cs),
(315,20,o),
(376,60,o),
(411,123,c),
(411,28,l),
(671,28,l)
);
},
{
closed = 1;
nodes = (
(411,28,l),
(411,7,ls),
(411,-43,o),
(373,-55,o),
(341,-55,cs),
(312,-55,o),
(286,-39,o),
(274,-12,c),
(35,-44,l),
(57,-154,o),
(171,-216,o),
(352,-216,cs),
(548,-216,o),
(671,-128,o),
(671,7,cs),
(671,28,l)
);
}
);
};
layerId = m01;
shapes = (
{
closed = 1;
nodes = (
(305,201,o),
(274,229,o),
(274,264,cs),
(274,272,ls),
(274,307,o),
(305,335,o),
(343,335,cs),
(383,335,o),
(412,307,o),
(412,272,cs),
(412,264,ls),
(412,229,o),
(383,201,o),
(343,201,cs)
);
},
{
closed = 1;
nodes = (
(672,500,l),
(422,500,l),
(422,407,l),
(414,407,l),
(379,478,o),
(317,516,o),
(240,516,cs),
(113,516,o),
(16,415,o),
(16,272,cs),
(16,264,ls),
(16,122,o),
(113,20,o),
(240,20,cs),
(316,20,o),
(377,60,o),
(412,123,c),
(412,28,l),
(672,28,l)
);
},
{
closed = 1;
nodes = (
(412,28,l),
(412,7,ls),
(412,-43,o),
(374,-55,o),
(342,-55,cs),
(313,-55,o),
(287,-39,o),
(275,-12,c),
(36,-44,l),
(58,-154,o),
(172,-216,o),
(353,-216,cs),
(549,-216,o),
(672,-128,o),
(672,7,cs),
(672,28,l)
);
}
);
width = 706;
}
);
unicode = 103;
},
{
glyphname = h;
kernLeft = h;
kernRight = n;
lastChange = "2025-07-24 08:47:57 +0000";
layers = (
{
background = {
shapes = (
{
closed = 1;
nodes = (
(35,0,l),
(295,0,l),
(295,700,l),
(35,700,l)
);
},
{
closed = 1;
nodes = (
(401,0,l),
(661,0,l),
(661,315,ls),
(661,458,o),
(569,516,o),
(470,516,cs),
(394,516,o),
(321,477,o),
(295,394,c),
(295,244,l),
(295,288,o),
(317,316,o),
(349,316,cs),
(382,316,o),
(401,288,o),
(401,244,cs)
);
}
);
};
layerId = m01;
shapes = (
{
closed = 1;
nodes = (
(34,0,l),
(294,0,l),
(294,700,l),
(34,700,l)
);
},
{
closed = 1;
nodes = (
(400,0,l),
(660,0,l),
(660,315,ls),
(660,458,o),
(568,516,o),
(469,516,cs),
(393,516,o),
(320,477,o),
(294,394,c),
(294,244,l),
(294,288,o),
(316,316,o),
(348,316,cs),
(381,316,o),
(400,288,o),
(400,244,cs)
);
}
);
width = 690;
}
);
unicode = 104;
},
{
glyphname = i;
kernLeft = i;
kernRight = i;
lastChange = "2025-07-24 08:47:57 +0000";
layers = (
{
layerId = m01;
shapes = (
{
closed = 1;
nodes = (
(34,0,l),
(294,0,l),
(294,500,l),
(34,500,l)
);
},
{
closed = 1;
nodes = (
(26,550,l),
(302,550,l),
(302,700,l),
(26,700,l)
);
}
);
width = 328;
}
);
unicode = 105;
},
{
glyphname = j;
kernLeft = i;
kernRight = i;
lastChange = "2025-07-24 08:47:57 +0000";
layers = (
{
background = {
shapes = (
{
closed = 1;
nodes = (
(172,-216,o),
(295,-164,o),
(295,-10,cs),
(295,500,l),
(35,500,l),
(35,-10,ls),
(35,-68,o),
(-27,-71,o),
(-85,-60,c),
(-85,-202,l),
(-47,-211,o),
(-2,-216,o),
(38,-216,cs)
);
},
{
closed = 1;
nodes = (
(27,550,l),
(303,550,l),
(303,700,l),
(27,700,l)
);
}
);
};
layerId = m01;
shapes = (
{
closed = 1;
nodes = (
(171,-216,o),
(294,-164,o),
(294,-10,cs),
(294,500,l),
(34,500,l),
(34,-10,ls),
(34,-68,o),
(-28,-71,o),
(-86,-60,c),
(-86,-202,l),
(-48,-211,o),
(-3,-216,o),
(37,-216,cs)
);
},
{
closed = 1;
nodes = (
(26,550,l),
(302,550,l),
(302,700,l),
(26,700,l)
);
}
);
width = 328;
}
);
unicode = 106;
},
{
glyphname = k;
kernLeft = h;
lastChange = "2025-07-24 08:47:57 +0000";
layers = (
{
background = {
shapes = (
{
closed = 1;
nodes = (
(721,500,l),
(417,500,l),
(187,280,l),
(237,75,l)
);
},
{
closed = 1;
nodes = (
(295,0,l),
(295,700,l),
(35,700,l),
(35,0,l)
);
},
{
closed = 1;
nodes = (
(731,0,l),
(491,332,l),
(262,264,l),
(422,0,l)
);
}
);
};
layerId = m01;
shapes = (
{
closed = 1;
nodes = (
(720,500,l),
(416,500,l),
(186,280,l),
(236,75,l)
);
},
{
closed = 1;
nodes = (
(294,0,l),
(294,700,l),
(34,700,l),
(34,0,l)
);
},
{
closed = 1;
nodes = (
(730,0,l),
(490,332,l),
(261,264,l),
(421,0,l)
);
}
);
width = 710;
}
);
unicode = 107;
},
{
glyphname = l;
kernLeft = h;
kernRight = d;
lastChange = "2025-07-24 08:47:57 +0000";
layers = (
{
layerId = m01;
shapes = (
{
closed = 1;
nodes = (
(34,0,l),
(294,0,l),
(294,700,l),
(34,700,l)
);
}
);
width = 328;
}
);
unicode = 108;
},
{
glyphname = m;
kernLeft = n;
kernRight = n;
lastChange = "2025-07-24 08:47:57 +0000";
layers = (
{
background = {
guides = (
{
angle = 90;
pos = (285,122);
},
{
pos = (285,370);
}
);
shapes = (
{
closed = 1;
nodes = (
(35,0,l),
(295,0,l),
(295,244,ls),
(295,288,o),
(315,316,o),
(344,316,cs),
(374,316,o),
(391,288,o),
(391,244,cs),
(391,0,l),
(651,0,l),
(651,244,ls),
(651,288,o),
(671,316,o),
(700,316,cs),
(730,316,o),
(747,288,o),
(747,244,cs),
(747,0,l),
(1007,0,l),
(1007,315,ls),
(1007,458,o),
(920,516,o),
(826,516,cs),
(748,516,o),
(671,476,o),
(645,370,c),
(624,472,o),
(552,516,o),
(469,516,cs),
(391,516,o),
(312,476,o),
(293,370,c),
(285,370,l),
(285,500,l),
(35,500,l)
);
}
);
};
guides = (
{
angle = 135;
pos = (284,122);
},
{
pos = (284,370);
}
);
layerId = m01;
shapes = (
{
closed = 1;
nodes = (
(34,0,l),
(294,0,l),
(294,244,ls),
(294,288,o),
(314,316,o),
(343,316,cs),
(373,316,o),
(390,288,o),
(390,244,cs),
(390,0,l),
(650,0,l),
(650,244,ls),
(650,288,o),
(670,316,o),
(699,316,cs),
(729,316,o),
(746,288,o),
(746,244,cs),
(746,0,l),
(1006,0,l),
(1006,315,ls),
(1006,458,o),
(919,516,o),
(825,516,cs),
(747,516,o),
(670,476,o),
(644,370,c),
(623,472,o),
(551,516,o),
(468,516,cs),
(390,516,o),
(311,476,o),
(292,370,c),
(284,370,l),
(284,500,l),
(34,500,l)
);
}
);
width = 1036;
}
);
unicode = 109;
},
{
glyphname = n;
kernLeft = n;
kernRight = n;
lastChange = "2025-07-24 08:47:57 +0000";
layers = (
{
background = {
guides = (
{
pos = (285,370);
}
);
shapes = (
{
closed = 1;
nodes = (
(35,0,l),
(295,0,l),
(295,244,ls),
(295,288,o),
(317,316,o),
(349,316,cs),
(382,316,o),
(401,288,o),
(401,244,cs),
(401,0,l),
(661,0,l),
(661,315,ls),
(661,458,o),
(569,516,o),
(470,516,cs),
(386,516,o),
(313,477,o),
(293,370,c),
(285,370,l),
(285,500,l),
(35,500,l)
);
}
);
};
guides = (
{
pos = (284,370);
}
);
layerId = m01;
shapes = (
{
closed = 1;
nodes = (
(34,0,l),
(294,0,l),
(294,244,ls),
(294,288,o),
(316,316,o),
(348,316,cs),
(381,316,o),
(400,288,o),
(400,244,cs),
(400,0,l),
(660,0,l),
(660,315,ls),
(660,458,o),
(568,516,o),
(469,516,cs),
(385,516,o),
(312,477,o),
(292,370,c),
(284,370,l),
(284,500,l),
(34,500,l)
);
}
);
width = 690;
}
);
unicode = 110;
},
{
glyphname = o;
kernLeft = o;
lastChange = "2025-07-24 08:47:57 +0000";
layers = (
{
background = {
shapes = (
{
closed = 1;
nodes = (
(370,335,o),
(399,307,o),
(399,272,cs),
(399,228,ls),
(399,193,o),
(370,165,o),
(332,165,cs),
(294,165,o),
(265,193,o),
(265,228,cs),
(265,272,ls),
(265,307,o),
(294,335,o),
(332,335,cs)
);
},
{
closed = 1;
nodes = (
(15,85,o),
(146,-16,o),
(332,-16,cs),
(518,-16,o),
(649,85,o),
(649,228,cs),
(649,272,ls),
(649,414,o),
(518,516,o),
(332,516,cs),
(146,516,o),
(15,414,o),
(15,272,cs),
(15,228,ls)
);
}
);
};
layerId = m01;
shapes = (
{
closed = 1;
nodes = (
(371,335,o),
(400,307,o),
(400,272,cs),
(400,228,ls),
(400,193,o),
(371,165,o),
(333,165,cs),
(295,165,o),
(266,193,o),
(266,228,cs),
(266,272,ls),
(266,307,o),
(295,335,o),
(333,335,cs)
);
},
{
closed = 1;
nodes = (
(16,85,o),
(147,-16,o),
(333,-16,cs),
(519,-16,o),
(650,85,o),
(650,228,cs),
(650,272,ls),
(650,414,o),
(519,516,o),
(333,516,cs),
(147,516,o),
(16,414,o),
(16,272,cs),
(16,228,ls)
);
}
);
width = 666;
}
);
unicode = 111;
},
{
glyphname = p;
kernLeft = n;
kernRight = b;
lastChange = "2025-07-24 08:47:57 +0000";
layers = (
{
background = {
shapes = (
{
closed = 1;
nodes = (
(295,-200,l),
(295,87,l),
(330,24,o),
(391,-16,o),
(467,-16,cs),
(594,-16,o),
(691,86,o),
(691,228,cs),
(691,272,ls),
(691,415,o),
(594,516,o),
(467,516,cs),
(390,516,o),
(328,478,o),
(293,407,c),
(285,407,l),
(285,500,l),
(35,500,l),
(35,-200,l)
);
},
{
closed = 1;
nodes = (
(324,165,o),
(295,193,o),
(295,228,cs),
(295,272,ls),
(295,307,o),
(324,335,o),
(364,335,cs),
(402,335,o),
(433,307,o),
(433,272,cs),
(433,228,ls),
(433,193,o),
(402,165,o),
(364,165,cs)
);
}
);
};
layerId = m01;
shapes = (
{
closed = 1;
nodes = (
(294,-200,l),
(294,87,l),
(329,24,o),
(390,-16,o),
(466,-16,cs),
(593,-16,o),
(690,86,o),
(690,228,cs),
(690,272,ls),
(690,415,o),
(593,516,o),
(466,516,cs),
(389,516,o),
(327,478,o),
(292,407,c),
(284,407,l),
(284,500,l),
(34,500,l),
(34,-200,l)
);
},
{
closed = 1;
nodes = (
(323,165,o),
(294,193,o),
(294,228,cs),
(294,272,ls),
(294,307,o),
(323,335,o),
(363,335,cs),
(401,335,o),
(432,307,o),
(432,272,cs),
(432,228,ls),
(432,193,o),
(401,165,o),
(363,165,cs)
);
}
);
width = 707;
}
);
unicode = 112;
},
{
glyphname = r;
kernLeft = n;
lastChange = "2025-07-24 08:47:57 +0000";
layers = (
{
guides = (
{
angle = 135;
pos = (284,250);
}
);
layerId = m01;
shapes = (
{
closed = 1;
nodes = (
(34,0,l),
(294,0,l),
(294,153,ls),
(294,255,o),
(357,295,o),
(485,275,c),
(485,516,l),
(402,516,o),
(322,477,o),
(292,358,c),
(284,358,l),
(284,500,l),
(34,500,l)
);
}
);
width = 499;
}
);
unicode = 114;
},
{
glyphname = s;
lastChange = "2025-07-24 08:47:57 +0000";
layers = (
{
background = {
guides = (
{
angle = 304.1597;
pos = (185,164);
},
{
angle = 90;
pos = (328,444);
}
);
shapes = (
{
closed = 1;
nodes = (
(8,96,l),
(74,16,o),
(194,-16,o),
(329,-16,cs),
(477,-16,o),
(627,26,o),
(627,164,cs),
(627,317,o),
(441,317,o),
(339,330,cs),
(300,334,o),
(273,341,o),
(273,359,cs),
(273,371,o),
(287,381,o),
(322,381,cs),
(359,381,o),
(418,372,o),
(455,326,c),
(620,407,l),
(555,479,o),
(427,516,o),
(311,516,cs),
(163,516,o),
(29,457,o),
(29,336,cs),
(29,195,o),
(211,184,o),
(314,171,cs),
(354,166,o),
(383,158,o),
(383,141,cs),
(383,127,o),
(366,119,o),
(332,119,cs),
(289,119,o),
(212,130,o),
(176,178,c)
);
}
);
};
guides = (
{
angle = 184.5324;
pos = (174,164);
},
{
angle = 174.8056;
pos = (317,444);
}
);
layerId = m01;
shapes = (
{
closed = 1;
nodes = (
(-3,96,l),
(63,16,o),
(183,-16,o),
(318,-16,cs),
(466,-16,o),
(616,26,o),
(616,164,cs),
(616,317,o),
(430,317,o),
(328,330,cs),
(289,334,o),
(262,341,o),
(262,359,cs),
(262,371,o),
(276,381,o),
(311,381,cs),
(348,381,o),
(407,372,o),
(444,326,c),
(609,407,l),
(544,479,o),
(416,516,o),
(300,516,cs),
(152,516,o),
(18,457,o),
(18,336,cs),
(18,195,o),
(200,184,o),
(303,171,cs),
(343,166,o),
(372,158,o),
(372,141,cs),
(372,127,o),
(355,119,o),
(321,119,cs),
(278,119,o),
(201,130,o),
(165,178,c)
);
}
);
width = 624;
}
);
unicode = 115;
},
{
glyphname = t;
lastChange = "2025-07-24 08:47:57 +0000";
layers = (
{
background = {
shapes = (
{
closed = 1;
nodes = (
(85,187,ls),
(85,52,o),
(180,-16,o),
(308,-16,cs),
(361,-16,o),
(420,-5,o),
(480,18,c),
(480,195,l),
(454,183,o),
(425,174,o),
(400,174,cs),
(369,174,o),
(345,188,o),
(345,226,cs),
(345,700,l),
(85,600,l)
);
},
{
closed = 1;
nodes = (
(5,310,l),
(480,310,l),
(480,500,l),
(5,500,l)
);
}
);
};
layerId = m01;
shapes = (
{
closed = 1;
nodes = (
(93,187,ls),
(93,52,o),
(188,-16,o),
(316,-16,cs),
(369,-16,o),
(428,-5,o),
(488,18,c),
(488,195,l),
(462,183,o),
(433,174,o),
(408,174,cs),
(377,174,o),
(353,188,o),
(353,226,cs),
(353,700,l),
(93,600,l)
);
},
{
closed = 1;
nodes = (
(13,310,l),
(488,310,l),
(488,500,l),
(13,500,l)
);
}
);
width = 510;
}
);
unicode = 116;
},
{
glyphname = v;
lastChange = "2025-07-24 08:47:57 +0000";
layers = (
{
background = {
guides = (
{
angle = 90;
pos = (672,158);
}
);
shapes = (
{
closed = 1;
nodes = (
(474,0,l),
(676,500,l),
(407,500,l),
(245,0,l)
);
},
{
closed = 1;
nodes = (
(422,0,l),
(270,500,l),
(0,500,l),
(202,0,l)
);
}
);
};
guides = (
{
angle = 170.5377;
pos = (666,158);
}
);
layerId = m01;
shapes = (
{
closed = 1;
nodes = (
(468,0,l),
(670,500,l),
(401,500,l),
(239,0,l)
);
},
{
closed = 1;
nodes = (
(416,0,l),
(264,500,l),
(-6,500,l),
(196,0,l)
);
}
);
width = 664;
}
);
unicode = 118;
},
{
glyphname = w;
lastChange = "2025-07-24 08:47:57 +0000";
layers = (
{
background = {
shapes = (
{
closed = 1;
nodes = (
(392,0,l),
(540,500,l),
(365,500,l),
(230,0,l)
);
},
{
closed = 1;
nodes = (
(374,0,l),
(252,500,l),
(0,500,l),
(169,0,l)
);
},
{
closed = 1;
nodes = (
(740,0,l),
(908,500,l),
(656,500,l),
(526,0,l)
);
},
{
closed = 1;
nodes = (
(670,0,l),
(542,500,l),
(368,500,l),
(517,0,l)
);
}
);
};
layerId = m01;
shapes = (
{
closed = 1;
nodes = (
(388,0,l),
(536,500,l),
(361,500,l),
(226,0,l)
);
},
{
closed = 1;
nodes = (
(370,0,l),
(248,500,l),
(-4,500,l),
(165,0,l)
);
},
{
closed = 1;
nodes = (
(736,0,l),
(904,500,l),
(652,500,l),
(522,0,l)
);
},
{
closed = 1;
nodes = (
(666,0,l),
(538,500,l),
(364,500,l),
(513,0,l)
);
}
);
width = 900;
}
);
unicode = 119;
},
{
glyphname = x;
lastChange = "2025-07-24 08:47:57 +0000";
layers = (
{
background = {
shapes = (
{
closed = 1;
nodes = (
(281,0,l),
(359,154,l),
(312,153,l),
(398,0,l),
(678,0,l),
(497,250,l),
(678,500,l),
(398,500,l),
(312,347,l),
(360,346,l),
(282,500,l),
(0,500,l),
(183,250,l),
(0,0,l)
);
}
);
};
layerId = m01;
shapes = (
{
closed = 1;
nodes = (
(268,0,l),
(346,154,l),
(299,153,l),
(385,0,l),
(665,0,l),
(484,250,l),
(665,500,l),
(385,500,l),
(299,347,l),
(347,346,l),
(269,500,l),
(-13,500,l),
(170,250,l),
(-13,0,l)
);
}
);
width = 652;
}
);
unicode = 120;
},
{
glyphname = y;
lastChange = "2025-07-24 08:47:57 +0000";
layers = (
{
background = {
shapes = (
{
closed = 1;
nodes = (
(422,0,l),
(269,500,l),
(0,500,l),
(246,-110,l)
);
},
{
closed = 1;
nodes = (
(98,-210,o),
(156,-216,o),
(199,-216,cs),
(320,-216,o),
(405,-168,o),
(452,-52,cs),
(676,500,l),
(406,500,l),
(258,42,ls),
(236,-26,o),
(198,-47,o),
(153,-47,cs),
(118,-47,o),
(79,-35,o),
(40,-23,c),
(40,-191,l)
);
}
);
};
layerId = m01;
shapes = (
{
closed = 1;
nodes = (
(416,0,l),
(263,500,l),
(-6,500,l),
(240,-110,l)
);
},
{
closed = 1;
nodes = (
(92,-210,o),
(150,-216,o),
(193,-216,cs),
(314,-216,o),
(399,-168,o),
(446,-52,cs),
(670,500,l),
(400,500,l),
(252,42,ls),
(230,-26,o),
(192,-47,o),
(147,-47,cs),
(112,-47,o),
(73,-35,o),
(34,-23,c),
(34,-191,l)
);
}
);
width = 663;
}
);
unicode = 121;
},
{
glyphname = z;
lastChange = "2025-07-24 08:47:57 +0000";
layers = (
{
background = {
guides = (
{
angle = 90;
pos = (564,188);
},
{
pos = (217,340);
},
{
angle = 180;
pos = (394,160);
},
{
angle = 215.8982;
pos = (564,340);
}
);
shapes = (
{
closed = 1;
nodes = (
(105,14,l),
(564,340,l),
(484,485,l),
(25,160,l)
);
},
{
closed = 1;
nodes = (
(570,0,l),
(570,190,l),
(218,190,l),
(25,160,l),
(25,0,l)
);
},
{
closed = 1;
nodes = (
(393,310,l),
(564,340,l),
(564,500,l),
(40,500,l),
(40,310,l)
);
}
);
};
guides = (
{
angle = 170.5377;
pos = (558,188);
},
{
angle = 180;
pos = (211,340);
},
{
angle = 180;
pos = (388,160);
},
{
angle = 184.921;
pos = (558,340);
}
);
layerId = m01;
shapes = (
{
closed = 1;
nodes = (
(99,14,l),
(558,340,l),
(478,485,l),
(19,160,l)
);
},
{
closed = 1;
nodes = (
(564,0,l),
(564,190,l),
(212,190,l),
(19,160,l),
(19,0,l)
);
},
{
closed = 1;
nodes = (
(387,310,l),
(558,340,l),
(558,500,l),
(34,500,l),
(34,310,l)
);
}
);
width = 587;
}
);
unicode = 122;
},
{
glyphname = a.ss03;
lastChange = "2025-07-24 08:47:57 +0000";
layers = (
{
background = {
shapes = (
{
closed = 1;
nodes = (
(623,0,l),
(623,315,ls),
(623,444,o),
(504,516,o),
(326,516,cs),
(165,516,o),
(58,456,o),
(37,354,c),
(252,312,l),
(263,339,o),
(289,355,o),
(316,355,cs),
(343,355,o),
(371,340,o),
(373,304,c),
(296,257,o),
(15,304,o),
(15,130,cs),
(15,30,o),
(103,-17,o),
(194,-17,cs),
(268,-17,o),
(341,14,o),
(375,85,c),
(383,85,l),
(383,0,l)
);
},
{
closed = 1;
nodes = (
(373,158,o),
(336,137,o),
(308,137,cs),
(289,137,o),
(276,148,o),
(276,169,cs),
(276,200,o),
(314,210,o),
(345,220,cs),
(373,229,l),
(373,210,ls)
);
}
);
};
layerId = m01;
shapes = (
{
closed = 1;
nodes = (
(613,0,l),
(613,315,ls),
(613,444,o),
(494,516,o),
(316,516,cs),
(155,516,o),
(48,456,o),
(27,354,c),
(242,312,l),
(253,339,o),
(279,355,o),
(306,355,cs),
(333,355,o),
(361,340,o),
(363,304,c),
(286,257,o),
(5,304,o),
(5,130,cs),
(5,30,o),
(93,-17,o),
(184,-17,cs),
(258,-17,o),
(331,14,o),
(365,85,c),
(373,85,l),
(373,0,l)
);
},
{
closed = 1;
nodes = (
(363,158,o),
(326,137,o),
(298,137,cs),
(279,137,o),
(266,148,o),
(266,169,cs),
(266,200,o),
(304,210,o),
(335,220,cs),
(363,229,l),
(363,210,ls)
);
}
);
width = 642;
}
);
},
{
glyphname = zero;
lastChange = "2025-07-24 08:47:57 +0000";
layers = (
{
layerId = m01;
shapes = (
{
closed = 1;
nodes = (
(452,486,o),
(490,443,o),
(490,390,cs),
(490,310,ls),
(490,257,o),
(452,214,o),
(403,214,cs),
(354,214,o),
(316,257,o),
(316,310,cs),
(316,390,ls),
(316,443,o),
(354,486,o),
(403,486,cs)
);
},
{
closed = 1;
nodes = (
(22,123,o),
(180,-16,o),
(403,-16,cs),
(626,-16,o),
(784,123,o),
(784,320,cs),
(784,380,ls),
(784,577,o),
(626,716,o),
(403,716,cs),
(180,716,o),
(22,577,o),
(22,380,cs),
(22,320,ls)
);
}
);
width = 806;
}
);
unicode = 48;
},
{
glyphname = one;
lastChange = "2025-07-24 08:47:57 +0000";
layers = (
{
guides = (
{
angle = 355.6013;
pos = (73,584);
}
);
layerId = m01;
shapes = (
{
closed = 1;
nodes = (
(471,0,l),
(471,700,l),
(246,700,l),
(185,650,o),
(116,630,o),
(33,620,c),
(33,428,l),
(99,428,o),
(145,438,o),
(191,458,c),
(191,0,l)
);
},
{
closed = 1;
nodes = (
(33,0,l),
(613,0,l),
(613,202,l),
(33,202,l)
);
}
);
width = 624;
}
);
unicode = 49;
},
{
glyphname = two;
lastChange = "2025-07-24 08:47:57 +0000";
layers = (
{
background = {
guides = (
{
angle = 180;
pos = (565,202);
}
);
shapes = (
{
closed = 1;
nodes = (
(730,0,l),
(740,202,l),
(389,202,l),
(22,172,l),
(22,0,l)
);
},
{
closed = 1;
nodes = (
(663,255,o),
(727,364,o),
(727,468,cs),
(727,629,o),
(570,716,o),
(393,716,cs),
(186,716,o),
(49,603,o),
(20,435,c),
(277,382,l),
(290,453,o),
(322,506,o),
(375,506,cs),
(416,506,o),
(443,479,o),
(443,441,cs),
(443,386,o),
(395,347,o),
(249,278,cs),
(22,172,l),
(123,45,l),
(213,80,ls)
);
}
);
};
guides = (
{
angle = 180;
pos = (563,202);
}
);
layerId = m01;
shapes = (
{
closed = 1;
nodes = (
(728,0,l),
(738,202,l),
(387,202,l),
(20,172,l),
(20,0,l)
);
},
{
closed = 1;
nodes = (
(661,255,o),
(725,364,o),
(725,468,cs),
(725,629,o),
(568,716,o),
(391,716,cs),
(184,716,o),
(47,603,o),
(18,435,c),
(275,382,l),
(288,453,o),
(320,506,o),
(373,506,cs),
(414,506,o),
(441,479,o),
(441,441,cs),
(441,386,o),
(393,347,o),
(247,278,cs),
(20,172,l),
(121,45,l),
(211,80,ls)
);
}
);
width = 755;
}
);
unicode = 50;
},
{
glyphname = three;
lastChange = "2025-07-24 08:47:57 +0000";
layers = (
{
background = {
shapes = (
{
closed = 1;
nodes = (
(60,700,l),
(50,498,l),
(349,498,l),
(191,396,l),
(310,247,l),
(262,252,l),
(298,300,o),
(332,319,o),
(372,319,cs),
(419,319,o),
(454,292,o),
(454,251,cs),
(454,211,o),
(421,184,o),
(373,184,cs),
(330,184,o),
(283,210,o),
(272,281,c),
(322,254,l),
(15,185,l),
(54,62,o),
(196,-16,o),
(384,-16,cs),
(595,-16,o),
(744,79,o),
(744,229,cs),
(744,344,o),
(659,427,o),
(531,429,c),
(701,539,l),
(701,700,l)
);
}
);
};
layerId = m01;
shapes = (
{
closed = 1;
nodes = (
(54,700,l),
(44,498,l),
(343,498,l),
(185,396,l),
(304,247,l),
(256,252,l),
(292,300,o),
(326,319,o),
(366,319,cs),
(413,319,o),
(448,292,o),
(448,251,cs),
(448,211,o),
(415,184,o),
(367,184,cs),
(324,184,o),
(277,210,o),
(266,281,c),
(316,254,l),
(9,185,l),
(48,62,o),
(190,-16,o),
(378,-16,cs),
(589,-16,o),
(738,79,o),
(738,229,cs),
(738,344,o),
(653,427,o),
(525,429,c),
(695,539,l),
(695,700,l)
);
}
);
width = 756;
}
);
unicode = 51;
},
{
glyphname = four;
lastChange = "2025-07-24 08:47:57 +0000";
layers = (
{
guides = (
{
angle = 180;
pos = (528,302);
},
{
angle = 185.2147;
pos = (457,420);
},
{
angle = 194.585;
pos = (236,150);
}
);
layerId = m01;
shapes = (
{
closed = 1;
nodes = (
(236,150,l),
(516,700,l),
(229,700,l),
(17,272,l)
);
},
{
closed = 1;
nodes = (
(793,110,l),
(793,312,l),
(263,312,l),
(17,272,l),
(17,110,l)
);
},
{
closed = 1;
nodes = (
(687,0,l),
(687,529,l),
(427,430,l),
(427,0,l)
);
}
);
width = 808;
}
);
unicode = 52;
},
{
glyphname = five;
lastChange = "2025-07-24 08:47:57 +0000";
layers = (
{
background = {
guides = (
{
angle = 180;
pos = (366,319);
},
{
angle = 90;
pos = (470,214);
}
);
shapes = (
{
closed = 1;
nodes = (
(760,376,o),
(637,454,o),
(492,454,cs),
(445,454,o),
(398,446,o),
(359,429,c),
(383,498,l),
(716,498,l),
(726,700,l),
(178,700,l),
(70,371,l),
(308,279,l),
(330,305,o),
(356,319,o),
(388,319,cs),
(435,319,o),
(470,292,o),
(470,252,cs),
(470,214,o),
(435,184,o),
(390,184,cs),
(354,184,o),
(312,203,o),
(302,252,c),
(25,206,l),
(64,70,o),
(218,-16,o),
(405,-16,cs),
(620,-16,o),
(760,98,o),
(760,241,cs)
);
}
);
};
guides = (
{
angle = 180;
pos = (349,319);
},
{
angle = 176.6335;
pos = (453,214);
}
);
layerId = m01;
shapes = (
{
closed = 1;
nodes = (
(743,376,o),
(620,454,o),
(475,454,cs),
(428,454,o),
(381,446,o),
(342,429,c),
(366,498,l),
(699,498,l),
(709,700,l),
(161,700,l),
(53,371,l),
(291,279,l),
(313,305,o),
(339,319,o),
(371,319,cs),
(418,319,o),
(453,292,o),
(453,252,cs),
(453,214,o),
(418,184,o),
(373,184,cs),
(337,184,o),
(295,203,o),
(285,252,c),
(8,206,l),
(47,70,o),
(201,-16,o),
(388,-16,cs),
(603,-16,o),
(743,98,o),
(743,241,cs)
);
}
);
width = 765;
}
);
unicode = 53;
},
{
glyphname = six;
lastChange = "2025-07-24 08:47:57 +0000";
layers = (
{
background = {
shapes = (
{
closed = 1;
nodes = (
(349,171,o),
(317,197,o),
(317,233,cs),
(317,239,ls),
(317,276,o),
(349,301,o),
(394,301,cs),
(439,301,o),
(471,276,o),
(471,239,cs),
(471,233,ls),
(471,197,o),
(439,171,o),
(394,171,cs)
);
},
{
closed = 1;
nodes = (
(23,317,ls),
(23,111,o),
(176,-16,o),
(407,-16,cs),
(611,-16,o),
(755,88,o),
(755,237,cs),
(755,384,o),
(616,464,o),
(482,464,cs),
(355,464,o),
(231,392,o),
(241,228,c),
(288,228,l),
(288,407,ls),
(288,484,o),
(339,526,o),
(402,526,cs),
(437,526,o),
(475,513,o),
(492,481,c),
(745,531,l),
(707,658,o),
(548,716,o),
(404,716,cs),
(207,716,o),
(23,604,o),
(23,367,cs)
);
}
);
};
layerId = m01;
shapes = (
{
closed = 1;
nodes = (
(349,171,o),
(317,197,o),
(317,233,cs),
(317,239,ls),
(317,276,o),
(349,301,o),
(394,301,cs),
(439,301,o),
(471,276,o),
(471,239,cs),
(471,233,ls),
(471,197,o),
(439,171,o),
(394,171,cs)
);
},
{
closed = 1;
nodes = (
(23,317,ls),
(23,111,o),
(176,-16,o),
(407,-16,cs),
(621,-16,o),
(755,88,o),
(755,235,cs),
(755,384,o),
(616,464,o),
(482,464,cs),
(355,464,o),
(231,392,o),
(241,228,c),
(288,228,l),
(288,407,ls),
(288,484,o),
(339,526,o),
(402,526,cs),
(437,526,o),
(475,513,o),
(492,481,c),
(745,531,l),
(707,658,o),
(548,716,o),
(404,716,cs),
(207,716,o),
(23,604,o),
(23,367,cs)
);
}
);
width = 773;
}
);
unicode = 54;
},
{
glyphname = seven;
lastChange = "2025-07-24 08:47:57 +0000";
layers = (
{
background = {
guides = (
{
pos = (415,538);
}
);
shapes = (
{
closed = 1;
nodes = (
(451,0,l),
(444,229,o),
(524,379,o),
(660,538,c),
(503,570,l),
(280,463,o),
(151,242,o),
(148,0,c)
);
},
{
closed = 1;
nodes = (
(415,498,l),
(660,538,l),
(660,700,l),
(34,700,l),
(24,498,l)
);
}
);
};
guides = (
{
angle = 180;
pos = (401,538);
}
);
layerId = m01;
shapes = (
{
closed = 1;
nodes = (
(437,0,l),
(430,229,o),
(510,379,o),
(646,538,c),
(489,570,l),
(266,463,o),
(137,242,o),
(134,0,c)
);
},
{
closed = 1;
nodes = (
(401,498,l),
(646,538,l),
(646,700,l),
(20,700,l),
(10,498,l)
);
}
);
width = 658;
}
);
unicode = 55;
},
{
glyphname = eight;
lastChange = "2025-07-24 08:47:57 +0000";
layers = (
{
background = {
guides = (
{
angle = 90;
pos = (18,200);
},
{
pos = (398,629);
}
);
shapes = (
{
closed = 1;
nodes = (
(614,-16,o),
(765,75,o),
(765,207,cs),
(765,292,o),
(702,371,o),
(561,389,c),
(561,341,l),
(682,357,o),
(737,436,o),
(737,512,cs),
(737,634,o),
(597,716,o),
(398,716,cs),
(198,716,o),
(58,634,o),
(58,512,cs),
(58,436,o),
(113,357,o),
(234,341,c),
(234,389,l),
(93,371,o),
(30,292,o),
(30,207,cs),
(30,75,o),
(181,-16,o),
(398,-16,cs)
);
},
{
closed = 1;
nodes = (
(351,162,o),
(318,190,o),
(318,229,cs),
(318,268,o),
(351,296,o),
(398,296,cs),
(445,296,o),
(478,268,o),
(478,229,cs),
(478,190,o),
(445,162,o),
(398,162,cs)
);
},
{
closed = 1;
nodes = (
(357,419,o),
(328,443,o),
(328,478,cs),
(328,513,o),
(357,538,o),
(398,538,cs),
(438,538,o),
(467,513,o),
(467,478,cs),
(467,443,o),
(438,419,o),
(398,419,cs)
);
}
);
};
guides = (
{
angle = 175.6013;
pos = (5,200);
},
{
angle = 180;
pos = (385,629);
}
);
layerId = m01;
shapes = (
{
closed = 1;
nodes = (
(601,-16,o),
(752,75,o),
(752,207,cs),
(752,292,o),
(689,371,o),
(548,389,c),
(548,341,l),
(669,357,o),
(724,436,o),
(724,512,cs),
(724,634,o),
(584,716,o),
(385,716,cs),
(185,716,o),
(45,634,o),
(45,512,cs),
(45,436,o),
(100,357,o),
(221,341,c),
(221,389,l),
(80,371,o),
(17,292,o),
(17,207,cs),
(17,75,o),
(168,-16,o),
(385,-16,cs)
);
},
{
closed = 1;
nodes = (
(338,162,o),
(305,190,o),
(305,229,cs),
(305,268,o),
(338,296,o),
(385,296,cs),
(432,296,o),
(465,268,o),
(465,229,cs),
(465,190,o),
(432,162,o),
(385,162,cs)
);
},
{
closed = 1;
nodes = (
(344,419,o),
(315,443,o),
(315,478,cs),
(315,513,o),
(344,538,o),
(385,538,cs),
(425,538,o),
(454,513,o),
(454,478,cs),
(454,443,o),
(425,419,o),
(385,419,cs)
);
}
);
width = 769;
}
);
unicode = 56;
},
{
glyphname = period;
kernLeft = period;
kernRight = period;
lastChange = "2025-07-24 08:47:57 +0000";
layers = (
{
background = {
shapes = (
{
closed = 1;
nodes = (
(285,0,l),
(285,240,l),
(45,240,l),
(45,0,l)
);
}
);
};
layerId = m01;
shapes = (
{
closed = 1;
nodes = (
(269,0,l),
(269,240,l),
(29,240,l),
(29,0,l)
);
}
);
width = 298;
}
);
unicode = 46;
},
{
glyphname = comma;
kernLeft = period;
kernRight = period;
lastChange = "2025-07-24 08:52:25 +0000";
layers = (
{
background = {
shapes = (
{
closed = 1;
nodes = (
(215,0,l),
(270,75,l),
(270,320,l),
(30,320,l),
(30,80,l),
(122,80,l),
(30,0,l)
);
}
);
};
guides = (
{
angle = 183.5763;
pos = (29,120);
}
);
layerId = m01;
shapes = (
{
closed = 1;
nodes = (
(215,0,l),
(270,75,l),
(270,320,l),
(30,320,l),
(30,80,l),
(122,80,l),
(30,0,l)
);
}
);
width = 298;
},
{
associatedMasterId = m01;
background = {
shapes = (
{
closed = 1;
nodes = (
(215,0,l),
(270,75,l),
(270,320,l),
(30,320,l),
(30,80,l),
(122,80,l),
(30,0,l)
);
}
);
};
guides = (
{
angle = 183.5763;
pos = (29,120);
}
);
layerId = "95549540-1E24-44A2-AAE2-371F473FDFED";
name = "24 Jul 25 at 09:52";
shapes = (
{
closed = 1;
nodes = (
(154,-170,l),
(269,-5,l),
(269,240,l),
(29,240,l),
(29,0,l),
(141,0,l),
(29,-170,l)
);
}
);
width = 298;
}
);
unicode = 44;
},
{
glyphname = colon;
kernLeft = colon;
kernRight = colon;
lastChange = "2025-07-24 08:47:57 +0000";
layers = (
{
layerId = m01;
shapes = (
{
closed = 1;
nodes = (
(243,0,l),
(243,211,l),
(32,211,l),
(32,0,l)
);
},
{
closed = 1;
nodes = (
(243,289,l),
(243,500,l),
(32,500,l),
(32,289,l)
);
}
);
width = 275;
}
);
unicode = 58;
},
{
glyphname = semicolon;
kernLeft = colon;
kernRight = colon;
lastChange = "2025-07-24 08:52:20 +0000";
layers = (
{
background = {
shapes = (
{
closed = 1;
nodes = (
(195,0,l),
(243,66,l),
(243,238,l),
(32,238,l),
(32,70,l),
(113,70,l),
(32,0,l)
);
},
{
closed = 1;
nodes = (
(243,316,l),
(243,500,l),
(32,500,l),
(32,316,l)
);
}
);
};
layerId = m01;
shapes = (
{
closed = 1;
nodes = (
(195,0,l),
(243,66,l),
(243,238,l),
(32,238,l),
(32,70,l),
(113,70,l),
(32,0,l)
);
},
{
closed = 1;
nodes = (
(243,316,l),
(243,500,l),
(32,500,l),
(32,316,l)
);
}
);
width = 275;
},
{
associatedMasterId = m01;
background = {
shapes = (
{
closed = 1;
nodes = (
(195,0,l),
(243,66,l),
(243,238,l),
(32,238,l),
(32,70,l),
(113,70,l),
(32,0,l)
);
},
{
closed = 1;
nodes = (
(243,316,l),
(243,500,l),
(32,500,l),
(32,316,l)
);
}
);
};
layerId = "2D3488E4-689B-49CB-ADF3-D45CABE7107F";
name = "24 Jul 25 at 09:52";
shapes = (
{
closed = 1;
nodes = (
(243,289,l),
(243,500,l),
(32,500,l),
(32,289,l)
);
},
{
closed = 1;
nodes = (
(142,-150,l),
(243,-5,l),
(243,211,l),
(32,211,l),
(32,0,l),
(131,0,l),
(32,-150,l)
);
}
);
width = 275;
}
);
unicode = 59;
},
{
glyphname = exclam;
lastChange = "2025-07-24 08:47:57 +0000";
layers = (
{
background = {
guides = (
{
angle = 270;
pos = (60,120);
},
{
angle = 90;
pos = (300,120);
},
{
pos = (180,300);
}
);
shapes = (
{
closed = 1;
nodes = (
(300,0,l),
(300,240,l),
(60,240,l),
(60,0,l)
);
},
{
closed = 1;
nodes = (
(240,290,l),
(300,436,l),
(300,700,l),
(60,700,l),
(60,436,l),
(120,290,l)
);
}
);
};
guides = (
{
angle = 182.3859;
pos = (36,120);
},
{
angle = 177.6141;
pos = (276,120);
},
{
angle = 180;
pos = (156,300);
}
);
layerId = m01;
shapes = (
{
closed = 1;
nodes = (
(276,0,l),
(276,240,l),
(36,240,l),
(36,0,l)
);
},
{
closed = 1;
nodes = (
(216,290,l),
(276,436,l),
(276,700,l),
(36,700,l),
(36,436,l),
(96,290,l)
);
}
);
width = 312;
}
);
unicode = 33;
},
{
glyphname = question;
lastChange = "2025-07-24 08:47:57 +0000";
layers = (
{
background = {
guides = (
{
pos = (212,339);
},
{
angle = 270;
pos = (219,120);
},
{
angle = 90;
pos = (459,120);
}
);
shapes = (
{
closed = 1;
nodes = (
(493,0,l),
(493,240,l),
(253,240,l),
(253,0,l)
);
},
{
closed = 1;
nodes = (
(253,291,l),
(493,291,l),
(493,380,l),
(288,331,l),
(324,331,ls),
(546,331,o),
(689,369,o),
(689,504,cs),
(689,648,o),
(527,716,o),
(363,716,cs),
(220,716,o),
(77,663,o),
(10,540,c),
(216,460,l),
(246,511,o),
(282,535,o),
(336,535,cs),
(385,535,o),
(419,515,o),
(419,485,cs),
(419,453,o),
(378,439,o),
(316,439,cs),
(253,439,l),
(253,429,l)
);
}
);
};
guides = (
{
angle = 180;
pos = (208,339);
},
{
angle = 194.0362;
pos = (215,120);
},
{
angle = 165.9638;
pos = (455,120);
}
);
layerId = m01;
shapes = (
{
closed = 1;
nodes = (
(489,0,l),
(489,240,l),
(249,240,l),
(249,0,l)
);
},
{
closed = 1;
nodes = (
(249,291,l),
(489,291,l),
(489,380,l),
(284,331,l),
(320,331,ls),
(542,331,o),
(685,369,o),
(685,504,cs),
(685,648,o),
(523,716,o),
(359,716,cs),
(216,716,o),
(73,663,o),
(6,540,c),
(212,460,l),
(242,511,o),
(278,535,o),
(332,535,cs),
(381,535,o),
(415,515,o),
(415,485,cs),
(415,453,o),
(374,439,o),
(312,439,cs),
(249,439,l),
(249,429,l)
);
}
);
width = 703;
}
);
unicode = 63;
},
{
glyphname = bullet;
lastChange = "2025-07-24 08:47:57 +0000";
layers = (
{
layerId = m01;
shapes = (
{
closed = 1;
nodes = (
(314,140,o),
(399,225,o),
(399,331,cs),
(399,437,o),
(314,522,o),
(208,522,cs),
(102,522,o),
(17,437,o),
(17,331,cs),
(17,225,o),
(102,140,o),
(208,140,cs)
);
}
);
width = 416;
}
);
unicode = 8226;
},
{
glyphname = asterisk;
lastChange = "2025-07-24 08:47:57 +0000";
layers = (
{
background = {
shapes = (
{
closed = 1;
nodes = (
(277,438,l),
(221,438,l),
(326,274,l),
(435,361,l),
(315,487,l),
(310,447,l),
(478,489,l),
(432,620,l),
(306,562,l),
(318,700,l),
(180,700,l),
(192,562,l),
(66,620,l),
(20,489,l),
(188,447,l),
(183,487,l),
(63,361,l),
(172,274,l)
);
}
);
};
layerId = m01;
shapes = (
{
closed = 1;
nodes = (
(257,438,l),
(201,438,l),
(306,274,l),
(415,361,l),
(295,487,l),
(290,447,l),
(458,489,l),
(412,620,l),
(286,562,l),
(298,700,l),
(160,700,l),
(172,562,l),
(46,620,l),
(0,489,l),
(168,447,l),
(163,487,l),
(43,361,l),
(152,274,l)
);
}
);
width = 458;
}
);
unicode = 42;
},
{
glyphname = numbersign;
lastChange = "2025-07-24 08:47:57 +0000";
layers = (
{
background = {
shapes = (
{
closed = 1;
nodes = (
(95,0,l),
(299,0,l),
(431,700,l),
(227,700,l)
);
},
{
closed = 1;
nodes = (
(433,0,l),
(637,0,l),
(769,700,l),
(565,700,l)
);
},
{
closed = 1;
nodes = (
(70,400,l),
(834,400,l),
(834,570,l),
(70,570,l)
);
},
{
closed = 1;
nodes = (
(30,130,l),
(794,130,l),
(794,300,l),
(30,300,l)
);
}
);
};
layerId = m01;
shapes = (
{
closed = 1;
nodes = (
(81,0,l),
(285,0,l),
(417,700,l),
(213,700,l)
);
},
{
closed = 1;
nodes = (
(419,0,l),
(623,0,l),
(755,700,l),
(551,700,l)
);
},
{
closed = 1;
nodes = (
(56,400,l),
(820,400,l),
(820,570,l),
(56,570,l)
);
},
{
closed = 1;
nodes = (
(16,130,l),
(780,130,l),
(780,300,l),
(16,300,l)
);
}
);
width = 836;
}
);
unicode = 35;
},
{
glyphname = slash;
lastChange = "2025-07-24 08:47:57 +0000";
layers = (
{
background = {
shapes = (
{
closed = 1;
nodes = (
(20,0,l),
(218,0,l),
(419,700,l),
(221,700,l)
);
}
);
};
layerId = m01;
shapes = (
{
closed = 1;
nodes = (
(7,0,l),
(205,0,l),
(406,700,l),
(208,700,l)
);
}
);
width = 413;
}
);
unicode = 47;
},
{
glyphname = comma.ss01;
lastChange = "2025-07-24 08:47:57 +0000";
layers = (
{
layerId = m01;
shapes = (
{
closed = 1;
nodes = (
(215,0,l),
(270,75,l),
(270,320,l),
(30,320,l),
(30,80,l),
(122,80,l),
(30,0,l)
);
}
);
width = 298;
}
);
},
{
glyphname = hyphen;
kernLeft = hyphen;
kernRight = hyphen;
lastChange = "2025-07-24 08:47:57 +0000";
layers = (
{
layerId = m01;
shapes = (
{
closed = 1;
nodes = (
(449,189,l),
(449,381,l),
(29,381,l),
(29,189,l)
);
}
);
width = 478;
}
);
unicode = 45;
},
{
glyphname = endash;
kernLeft = hyphen;
kernRight = hyphen;
lastChange = "2025-07-24 08:47:57 +0000";
layers = (
{
background = {
shapes = (
{
closed = 1;
nodes = (
(695,189,l),
(695,381,l),
(55,381,l),
(55,189,l)
);
}
);
};
layerId = m01;
shapes = (
{
closed = 1;
nodes = (
(669,189,l),
(669,381,l),
(29,381,l),
(29,189,l)
);
}
);
width = 698;
}
);
unicode = 8211;
},
{
glyphname = emdash;
kernLeft = hyphen;
kernRight = hyphen;
lastChange = "2025-07-24 08:47:57 +0000";
layers = (
{
background = {
shapes = (
{
closed = 1;
nodes = (
(1115,189,l),
(1115,381,l),
(55,381,l),
(55,189,l)
);
}
);
};
layerId = m01;
shapes = (
{
closed = 1;
nodes = (
(1089,189,l),
(1089,381,l),
(29,381,l),
(29,189,l)
);
}
);
width = 1118;
}
);
unicode = 8212;
},
{
glyphname = underscore;
lastChange = "2025-07-24 08:47:57 +0000";
layers = (
{
layerId = m01;
shapes = (
{
closed = 1;
nodes = (
(596,-200,l),
(596,-28,l),
(16,-28,l),
(16,-200,l)
);
}
);
width = 612;
}
);
unicode = 95;
},
{
glyphname = parenleft;
lastChange = "2025-07-24 08:47:57 +0000";
layers = (
{
layerId = m01;
shapes = (
{
closed = 1;
nodes = (
(374,-59,l),
(296,21,o),
(255,185,o),
(255,345,cs),
(255,508,o),
(297,668,o),
(374,752,c),
(311,780,l),
(115,683,o),
(18,514,o),
(18,345,cs),
(18,176,o),
(115,8,o),
(311,-90,c)
);
}
);
width = 380;
}
);
unicode = 40;
},
{
glyphname = braceleft;
lastChange = "2025-07-24 08:47:57 +0000";
layers = (
{
layerId = m01;
shapes = (
{
closed = 1;
nodes = (
(18,282,l),
(70,282,o),
(96,265,o),
(85,202,cs),
(69,110,ls),
(44,-35,o),
(104,-90,o),
(284,-90,cs),
(379,-90,l),
(379,66,l),
(319,66,ls),
(290,66,o),
(279,76,o),
(283,100,cs),
(305,232,ls),
(318,310,o),
(277,337,o),
(208,345,c),
(277,353,o),
(318,380,o),
(305,458,cs),
(283,590,ls),
(279,614,o),
(290,624,o),
(319,624,cs),
(379,624,l),
(379,780,l),
(284,780,ls),
(104,780,o),
(44,725,o),
(69,580,cs),
(85,488,ls),
(96,425,o),
(70,408,o),
(18,408,c)
);
}
);
width = 404;
}
);
unicode = 123;
},
{
glyphname = bracketleft;
lastChange = "2025-07-24 08:47:57 +0000";
layers = (
{
background = {
shapes = (
{
closed = 1;
nodes = (
(55,-90,l),
(408,-90,l),
(408,66,l),
(291,66,l),
(291,624,l),
(408,624,l),
(408,780,l),
(55,780,l)
);
}
);
};
layerId = m01;
shapes = (
{
closed = 1;
nodes = (
(40,-90,l),
(393,-90,l),
(393,66,l),
(276,66,l),
(276,624,l),
(393,624,l),
(393,780,l),
(40,780,l)
);
}
);
width = 416;
}
);
unicode = 91;
},
{
glyphname = quotedblleft;
kernLeft = quoteleft;
kernRight = quoteleft;
lastChange = "2025-07-24 08:47:57 +0000";
layers = (
{
layerId = m01;
shapes = (
{
closed = 1;
nodes = (
(418,700,l),
(303,565,l),
(303,320,l),
(543,320,l),
(543,560,l),
(431,560,l),
(543,700,l)
);
},
{
closed = 1;
nodes = (
(138,700,l),
(23,565,l),
(23,320,l),
(263,320,l),
(263,560,l),
(151,560,l),
(263,700,l)
);
}
);
width = 570;
}
);
unicode = 8220;
},
{
glyphname = quotedblright;
kernLeft = quoteright;
kernRight = quoteright;
lastChange = "2025-07-24 08:47:57 +0000";
layers = (
{
layerId = m01;
shapes = (
{
closed = 1;
nodes = (
(153,320,l),
(268,455,l),
(268,700,l),
(28,700,l),
(28,460,l),
(140,460,l),
(28,320,l)
);
},
{
closed = 1;
nodes = (
(433,320,l),
(548,455,l),
(548,700,l),
(308,700,l),
(308,460,l),
(420,460,l),
(308,320,l)
);
}
);
width = 567;
}
);
unicode = 8221;
},
{
glyphname = quoteleft;
kernLeft = quoteleft;
kernRight = quoteleft;
lastChange = "2025-07-24 08:47:57 +0000";
layers = (
{
layerId = m01;
shapes = (
{
closed = 1;
nodes = (
(138,700,l),
(23,565,l),
(23,320,l),
(263,320,l),
(263,560,l),
(151,560,l),
(263,700,l)
);
}
);
width = 290;
}
);
unicode = 8216;
},
{
glyphname = quoteright;
kernLeft = quoteright;
kernRight = quoteright;
lastChange = "2025-07-24 08:47:57 +0000";
layers = (
{
background = {
shapes = (
{
closed = 1;
nodes = (
(170,320,l),
(285,455,l),
(285,700,l),
(45,700,l),
(45,460,l),
(157,460,l),
(45,320,l)
);
}
);
};
layerId = m01;
shapes = (
{
closed = 1;
nodes = (
(153,320,l),
(268,455,l),
(268,700,l),
(28,700,l),
(28,460,l),
(140,460,l),
(28,320,l)
);
}
);
width = 287;
}
);
unicode = 8217;
},
{
glyphname = quotesingle;
kernLeft = quotesingle;
kernRight = quotesingle;
lastChange = "2025-07-24 08:47:57 +0000";
layers = (
{
layerId = m01;
shapes = (
{
closed = 1;
nodes = (
(41,407,l),
(195,407,l),
(222,700,l),
(14,700,l)
);
}
);
width = 236;
}
);
unicode = 39;
},
{
glyphname = at;
lastChange = "2025-07-24 08:47:57 +0000";
layers = (
{
background = {
guides = (
{
pos = (588,140);
}
);
shapes = (
{
closed = 1;
nodes = (
(552,91,l),
(500,57,o),
(446,45,o),
(393,45,cs),
(236,45,o),
(124,152,o),
(124,319,cs),
(124,492,o),
(243,624,o),
(426,624,cs),
(570,624,o),
(685,540,o),
(685,391,cs),
(685,288,o),
(630,239,o),
(598,239,cs),
(582,239,o),
(573,250,o),
(577,270,cs),
(626,502,l),
(501,502,l),
(452,270,ls),
(435,190,o),
(481,139,o),
(561,139,cs),
(678,139,o),
(779,248,o),
(779,398,cs),
(779,579,o),
(639,716,o),
(426,716,cs),
(194,716,o),
(20,546,o),
(20,319,cs),
(20,98,o),
(173,-48,o),
(389,-48,cs),
(461,-48,o),
(537,-32,o),
(607,17,c)
);
},
{
closed = 1;
nodes = (
(479,139,o),
(523,270,o),
(523,367,cs),
(523,462,o),
(480,534,o),
(381,534,cs),
(258,534,o),
(198,421,o),
(198,318,cs),
(198,212,o),
(261,139,o),
(354,139,cs)
);
},
{
closed = 1;
nodes = (
(361,262,o),
(334,291,o),
(334,328,cs),
(334,370,o),
(364,403,o),
(403,403,cs),
(437,403,o),
(464,376,o),
(464,341,cs),
(464,297,o),
(434,262,o),
(395,262,cs)
);
}
);
};
guides = (
{
pos = (588,140);
}
);
layerId = m01;
shapes = (
{
closed = 1;
nodes = (
(552,91,l),
(500,57,o),
(446,45,o),
(393,45,cs),
(236,45,o),
(124,152,o),
(124,319,cs),
(124,492,o),
(243,624,o),
(426,624,cs),
(570,624,o),
(685,540,o),
(685,391,cs),
(685,288,o),
(630,239,o),
(598,239,cs),
(582,239,o),
(573,250,o),
(577,270,cs),
(626,502,l),
(501,502,l),
(452,270,ls),
(435,190,o),
(481,139,o),
(561,139,cs),
(678,139,o),
(779,248,o),
(779,398,cs),
(779,579,o),
(639,716,o),
(426,716,cs),
(194,716,o),
(20,546,o),
(20,319,cs),
(20,98,o),
(173,-48,o),
(389,-48,cs),
(461,-48,o),
(537,-32,o),
(607,17,c)
);
},
{
closed = 1;
nodes = (
(479,139,o),
(523,270,o),
(523,367,cs),
(523,462,o),
(480,534,o),
(381,534,cs),
(258,534,o),
(198,421,o),
(198,318,cs),
(198,212,o),
(261,139,o),
(354,139,cs)
);
},
{
closed = 1;
nodes = (
(361,262,o),
(334,291,o),
(334,328,cs),
(334,370,o),
(364,403,o),
(403,403,cs),
(437,403,o),
(464,376,o),
(464,341,cs),
(464,297,o),
(434,262,o),
(395,262,cs)
);
}
);
width = 797;
}
);
unicode = 64;
},
{
glyphname = ampersand;
lastChange = "2025-07-24 08:47:57 +0000";
layers = (
{
background = {
guides = (
{
angle = 90;
pos = (15,351);
}
);
shapes = (
{
closed = 1;
nodes = (
(278,679,l),
(124,530,l),
(571,0,l),
(858,0,l)
);
},
{
closed = 1;
nodes = (
(653,700,l),
(124,700,l),
(124,530,l),
(340,498,l),
(643,498,l)
);
},
{
closed = 1;
nodes = (
(645,107,l),
(737,180,o),
(792,289,o),
(811,415,c),
(852,376,l),
(595,427,l),
(573,334,o),
(545,290,o),
(510,253,c)
);
},
{
closed = 1;
nodes = (
(474,226,l),
(441,188,o),
(411,164,o),
(365,164,cs),
(318,164,o),
(283,189,o),
(283,229,cs),
(283,276,o),
(323,298,o),
(352,297,c),
(288,430,l),
(144,430,o),
(15,346,o),
(15,211,cs),
(15,72,o),
(154,-16,o),
(327,-16,cs),
(432,-16,o),
(526,14,o),
(605,97,c)
);
}
);
};
guides = (
{
angle = 26.5651;
pos = (17,351);
}
);
layerId = m01;
shapes = (
{
closed = 1;
nodes = (
(647,107,l),
(731.655,174.172,o),
(784.982,271.824,o),
(807.76,385.176,c),
(597,427,l),
(575,334,o),
(547,290,o),
(512,253,c)
);
},
{
closed = 1;
nodes = (
(280,679,l),
(126,530,l),
(573,0,l),
(860,0,l)
);
},
{
closed = 1;
nodes = (
(655,700,l),
(126,700,l),
(126,530,l),
(342,498,l),
(645,498,l)
);
},
{
closed = 1;
nodes = (
(476,226,l),
(443,188,o),
(413,164,o),
(367,164,cs),
(320,164,o),
(285,189,o),
(285,229,cs),
(285,276,o),
(325,298,o),
(354,297,c),
(290,430,l),
(146,430,o),
(17,346,o),
(17,211,cs),
(17,72,o),
(156,-16,o),
(329,-16,cs),
(434,-16,o),
(528,14,o),
(607,97,c)
);
}
);
width = 861;
}
);
unicode = 38;
},
{
glyphname = copyright;
lastChange = "2025-07-24 08:47:57 +0000";
layers = (
{
background = {
shapes = (
{
closed = 1;
nodes = (
(675,-15,o),
(836,130,o),
(836,351,cs),
(836,571,o),
(675,716,o),
(428,716,cs),
(181,716,o),
(20,571,o),
(20,351,cs),
(20,130,o),
(181,-15,o),
(428,-15,cs)
);
},
{
closed = 1;
nodes = (
(258,89,o),
(145,194,o),
(145,351,cs),
(145,507,o),
(258,612,o),
(428,612,cs),
(598,612,o),
(711,507,o),
(711,351,cs),
(711,194,o),
(598,89,o),
(428,89,cs)
);
},
{
closed = 1;
nodes = (
(300,147,o),
(205,223,o),
(205,334,cs),
(205,366,ls),
(205,477,o),
(300,553,o),
(434,553,cs),
(549,553,o),
(639,493,o),
(652,402,c),
(497,371,l),
(494,402,o),
(469,426,o),
(434,426,cs),
(398,426,o),
(370,400,o),
(370,366,cs),
(370,334,ls),
(370,300,o),
(398,274,o),
(434,274,cs),
(469,274,o),
(494,298,o),
(497,329,c),
(652,298,l),
(639,207,o),
(549,147,o),
(434,147,cs)
);
}
);
};
layerId = m01;
shapes = (
{
closed = 1;
nodes = (
(673,-15,o),
(834,130,o),
(834,351,cs),
(834,571,o),
(673,716,o),
(426,716,cs),
(179,716,o),
(18,571,o),
(18,351,cs),
(18,130,o),
(179,-15,o),
(426,-15,cs)
);
},
{
closed = 1;
nodes = (
(256,89,o),
(143,194,o),
(143,351,cs),
(143,507,o),
(256,612,o),
(426,612,cs),
(596,612,o),
(709,507,o),
(709,351,cs),
(709,194,o),
(596,89,o),
(426,89,cs)
);
},
{
closed = 1;
nodes = (
(298,147,o),
(203,223,o),
(203,334,cs),
(203,366,ls),
(203,477,o),
(298,553,o),
(432,553,cs),
(547,553,o),
(637,493,o),
(650,402,c),
(495,371,l),
(492,402,o),
(467,426,o),
(432,426,cs),
(396,426,o),
(368,400,o),
(368,366,cs),
(368,334,ls),
(368,300,o),
(396,274,o),
(432,274,cs),
(467,274,o),
(492,298,o),
(495,329,c),
(650,298,l),
(637,207,o),
(547,147,o),
(432,147,cs)
);
}
);
width = 852;
}
);
unicode = 169;
},
{
glyphname = registered;
lastChange = "2025-07-24 08:47:57 +0000";
layers = (
{
background = {
guides = (
{
pos = (549,157);
},
{
pos = (549,543);
},
{
angle = 90;
pos = (629,333);
}
);
shapes = (
{
closed = 1;
nodes = (
(425,264,o),
(525,353,o),
(525,490,cs),
(525,626,o),
(425,716,o),
(272,716,cs),
(120,716,o),
(20,626,o),
(20,490,cs),
(20,353,o),
(120,264,o),
(272,264,cs)
);
},
{
closed = 1;
nodes = (
(167,328,o),
(97,393,o),
(97,490,cs),
(97,587,o),
(167,652,o),
(272,652,cs),
(378,652,o),
(447,587,o),
(447,490,cs),
(447,393,o),
(378,328,o),
(272,328,cs)
);
},
{
closed = 1;
nodes = (
(322,452,ls),
(364,452,o),
(391,480,o),
(391,525,cs),
(391,571,o),
(364,599,o),
(322,599,cs),
(201,599,l),
(201,533,l),
(285,533,ls),
(293,533,o),
(298,527,o),
(298,519,cs),
(298,511,o),
(293,505,o),
(285,505,cs),
(238,505,l),
(238,452,l)
);
},
{
closed = 1;
nodes = (
(256,380,l),
(256,599,l),
(167,599,l),
(167,380,l)
);
},
{
closed = 1;
nodes = (
(391,380,l),
(338,471,l),
(253,460,l),
(288,380,l)
);
}
);
};
guides = (
{
angle = 180;
pos = (541,157);
},
{
angle = 180;
pos = (541,543);
},
{
angle = 172.875;
pos = (621,333);
}
);
layerId = m01;
shapes = (
{
closed = 1;
nodes = (
(417,264,o),
(517,353,o),
(517,490,cs),
(517,626,o),
(417,716,o),
(264,716,cs),
(112,716,o),
(12,626,o),
(12,490,cs),
(12,353,o),
(112,264,o),
(264,264,cs)
);
},
{
closed = 1;
nodes = (
(159,328,o),
(89,393,o),
(89,490,cs),
(89,587,o),
(159,652,o),
(264,652,cs),
(370,652,o),
(439,587,o),
(439,490,cs),
(439,393,o),
(370,328,o),
(264,328,cs)
);
},
{
closed = 1;
nodes = (
(314,452,ls),
(356,452,o),
(383,480,o),
(383,525,cs),
(383,571,o),
(356,599,o),
(314,599,cs),
(193,599,l),
(193,533,l),
(277,533,ls),
(285,533,o),
(290,527,o),
(290,519,cs),
(290,511,o),
(285,505,o),
(277,505,cs),
(230,505,l),
(230,452,l)
);
},
{
closed = 1;
nodes = (
(248,380,l),
(248,599,l),
(159,599,l),
(159,380,l)
);
},
{
closed = 1;
nodes = (
(383,380,l),
(330,471,l),
(245,460,l),
(280,380,l)
);
}
);
width = 529;
}
);
unicode = 174;
},
{
glyphname = trademark;
lastChange = "2025-07-24 08:47:57 +0000";
layers = (
{
background = {
shapes = (
{
closed = 1;
nodes = (
(276,331,l),
(276,700,l),
(129,700,l),
(129,331,l)
);
},
{
closed = 1;
nodes = (
(384,578,l),
(384,700,l),
(20,700,l),
(20,578,l)
);
},
{
closed = 1;
nodes = (
(559,331,l),
(559,548,l),
(552,546,l),
(627,331,l),
(736,331,l),
(813,546,l),
(804,548,l),
(804,331,l),
(947,331,l),
(947,700,l),
(744,700,l),
(652,445,l),
(712,445,l),
(621,700,l),
(417,700,l),
(417,331,l)
);
}
);
};
layerId = m01;
shapes = (
{
closed = 1;
nodes = (
(262,331,l),
(262,700,l),
(115,700,l),
(115,331,l)
);
},
{
closed = 1;
nodes = (
(370,578,l),
(370,700,l),
(6,700,l),
(6,578,l)
);
},
{
closed = 1;
nodes = (
(545,331,l),
(545,548,l),
(538,546,l),
(613,331,l),
(722,331,l),
(799,546,l),
(790,548,l),
(790,331,l),
(933,331,l),
(933,700,l),
(730,700,l),
(638,445,l),
(698,445,l),
(607,700,l),
(403,700,l),
(403,331,l)
);
}
);
width = 966;
}
);
unicode = 8482;
},
{
glyphname = degree;
lastChange = "2025-07-24 08:47:57 +0000";
layers = (
{
background = {
shapes = (
{
closed = 1;
nodes = (
(301,594,o),
(325,572,o),
(325,544,cs),
(325,515,ls),
(325,487,o),
(301,465,o),
(269,465,cs),
(238,465,o),
(214,487,o),
(214,515,cs),
(214,544,ls),
(214,572,o),
(238,594,o),
(269,594,cs)
);
},
{
closed = 1;
nodes = (
(60,414,o),
(147,343,o),
(269,343,cs),
(392,343,o),
(479,414,o),
(479,514,cs),
(479,545,ls),
(479,645,o),
(392,716,o),
(269,716,cs),
(147,716,o),
(60,645,o),
(60,545,cs),
(60,514,ls)
);
}
);
};
layerId = m01;
shapes = (
{
closed = 1;
nodes = (
(252,594,o),
(276,572,o),
(276,544,cs),
(276,515,ls),
(276,487,o),
(252,465,o),
(220,465,cs),
(189,465,o),
(165,487,o),
(165,515,cs),
(165,544,ls),
(165,572,o),
(189,594,o),
(220,594,cs)
);
},
{
closed = 1;
nodes = (
(11,414,o),
(98,343,o),
(220,343,cs),
(343,343,o),
(430,414,o),
(430,514,cs),
(430,545,ls),
(430,645,o),
(343,716,o),
(220,716,cs),
(98,716,o),
(11,645,o),
(11,545,cs),
(11,514,ls)
);
}
);
width = 441;
}
);
unicode = 176;
},
{
glyphname = bar;
lastChange = "2025-07-24 08:47:57 +0000";
layers = (
{
background = {
shapes = (
{
closed = 1;
nodes = (
(120,-115,l),
(330,-115,l),
(330,780,l),
(120,780,l)
);
}
);
};
layerId = m01;
shapes = (
{
closed = 1;
nodes = (
(41,-115,l),
(251,-115,l),
(251,780,l),
(41,780,l)
);
}
);
width = 292;
}
);
unicode = 124;
},
{
glyphname = ampersand.ss04;
lastChange = "2025-07-24 08:47:57 +0000";
layers = (
{
background = {
shapes = (
{
closed = 1;
nodes = (
(198,716,o),
(97,640,o),
(97,538,cs),
(97,473,o),
(136,426,o),
(186,375,cs),
(547,0,l),
(804,0,l),
(355,460,ls),
(335,482,o),
(313,500,o),
(313,525,cs),
(313,546,o),
(328,560,o),
(354,560,cs),
(378,560,o),
(395,545,o),
(395,524,cs),
(395,501,o),
(375,478,o),
(295,455,c),
(403,337,l),
(479,361,o),
(579,429,o),
(579,535,cs),
(579,640,o),
(481,716,o),
(339,716,cs)
);
},
{
closed = 1;
nodes = (
(249,273,o),
(306,296,o),
(348,307,c),
(228,430,l),
(131,404,o),
(15,338,o),
(15,213,cs),
(15,82,o),
(144,-16,o),
(320,-16,cs),
(535,-16,o),
(723,143,o),
(763,369,c),
(546,369,l),
(524,218,o),
(420,163,o),
(342,163,cs),
(290,163,o),
(249,187,o),
(249,227,cs)
);
}
);
};
layerId = m01;
shapes = (
{
closed = 1;
nodes = (
(198,716,o),
(97,640,o),
(97,538,cs),
(97,473,o),
(136,426,o),
(186,375,cs),
(547,0,l),
(804,0,l),
(355,460,ls),
(335,482,o),
(312,500,o),
(312,525,cs),
(312,547,o),
(329,562,o),
(354,562,cs),
(377,562,o),
(396,546,o),
(396,524,cs),
(396,501,o),
(375,478,o),
(295,455,c),
(403,337,l),
(479,361,o),
(579,429,o),
(579,535,cs),
(579,640,o),
(481,716,o),
(339,716,cs)
);
},
{
closed = 1;
nodes = (
(249,273,o),
(306,296,o),
(348,307,c),
(228,430,l),
(131,404,o),
(15,338,o),
(15,213,cs),
(15,82,o),
(144,-16,o),
(320,-16,cs),
(535,-16,o),
(723,143,o),
(763,369,c),
(546,369,l),
(524,218,o),
(420,163,o),
(342,163,cs),
(290,163,o),
(249,187,o),
(249,227,cs)
);
}
);
width = 807;
}
);
},
{
glyphname = dollar;
lastChange = "2025-07-24 08:47:57 +0000";
layers = (
{
background = {
shapes = (
{
closed = 1;
nodes = (
(609,0,o),
(743,95,o),
(743,245,cs),
(743,543,o),
(276,397,o),
(276,491,cs),
(276,514,o),
(306,527,o),
(353,527,cs),
(406,527,o),
(474,510,o),
(499,468,c),
(734,533,l),
(679,636,o),
(532,700,o),
(352,700,cs),
(147,700,o),
(18,610,o),
(18,467,cs),
(18,170,o),
(485,307,o),
(485,210,cs),
(485,186,o),
(458,173,o),
(401,173,cs),
(329,173,o),
(267,197,o),
(235,250,c),
(5,186,l),
(56,72,o),
(206,0,o),
(394,0,cs)
);
},
{
closed = 1;
nodes = (
(266,659,l),
(462,659,l),
(462,800,l),
(266,800,l)
);
},
{
closed = 1;
nodes = (
(266,-100,l),
(462,-100,l),
(462,41,l),
(266,41,l)
);
}
);
};
layerId = m01;
shapes = (
{
closed = 1;
nodes = (
(619,0,o),
(753,95,o),
(753,245,cs),
(753,543,o),
(286,397,o),
(286,491,cs),
(286,514,o),
(316,527,o),
(363,527,cs),
(416,527,o),
(484,510,o),
(509,468,c),
(744,533,l),
(689,636,o),
(542,700,o),
(362,700,cs),
(157,700,o),
(28,610,o),
(28,467,cs),
(28,170,o),
(495,307,o),
(495,210,cs),
(495,186,o),
(468,173,o),
(411,173,cs),
(339,173,o),
(277,197,o),
(245,250,c),
(15,186,l),
(66,72,o),
(216,0,o),
(404,0,cs)
);
},
{
closed = 1;
nodes = (
(276,659,l),
(472,659,l),
(472,800,l),
(276,800,l)
);
},
{
closed = 1;
nodes = (
(276,-100,l),
(472,-100,l),
(472,41,l),
(276,41,l)
);
}
);
width = 773;
}
);
unicode = 36;
},
{
glyphname = euro;
lastChange = "2025-07-24 08:47:57 +0000";
layers = (
{
background = {
shapes = (
{
closed = 1;
nodes = (
(665,-16,o),
(823,93,o),
(844,256,c),
(583,312,l),
(574,251,o),
(527,204,o),
(464,204,cs),
(402,204,o),
(357,251,o),
(357,310,cs),
(357,390,ls),
(357,449,o),
(402,496,o),
(464,496,cs),
(527,496,o),
(574,449,o),
(583,388,c),
(844,444,l),
(823,607,o),
(665,716,o),
(468,716,cs),
(244,716,o),
(90,577,o),
(90,380,cs),
(90,320,ls),
(90,123,o),
(244,-16,o),
(468,-16,cs)
);
},
{
closed = 1;
nodes = (
(20,365,l),
(483,365,l),
(483,445,l),
(20,445,l)
);
},
{
closed = 1;
nodes = (
(20,255,l),
(483,255,l),
(483,335,l),
(20,335,l)
);
}
);
};
layerId = m01;
shapes = (
{
closed = 1;
nodes = (
(668,-16,o),
(826,93,o),
(847,256,c),
(586,312,l),
(577,251,o),
(530,204,o),
(467,204,cs),
(405,204,o),
(360,251,o),
(360,310,cs),
(360,390,ls),
(360,449,o),
(405,496,o),
(467,496,cs),
(530,496,o),
(577,449,o),
(586,388,c),
(847,444,l),
(826,607,o),
(668,716,o),
(471,716,cs),
(247,716,o),
(93,577,o),
(93,380,cs),
(93,320,ls),
(93,123,o),
(247,-16,o),
(471,-16,cs)
);
},
{
closed = 1;
nodes = (
(23,365,l),
(486,365,l),
(486,445,l),
(23,445,l)
);
},
{
closed = 1;
nodes = (
(23,255,l),
(486,255,l),
(486,335,l),
(23,335,l)
);
}
);
width = 863;
}
);
unicode = 8364;
},
{
glyphname = sterling;
lastChange = "2025-07-24 08:47:57 +0000";
layers = (
{
background = {
shapes = (
{
closed = 1;
nodes = (
(715,654,o),
(586,716,o),
(449,716,cs),
(294,716,o),
(173,637,o),
(148,463,cs),
(128,327,o),
(92,173,o),
(40,20,c),
(40,0,l),
(303,0,l),
(355,157,o),
(391,313,o),
(409,453,cs),
(416,507,o),
(435,519,o),
(455,519,cs),
(488,519,o),
(508,487,o),
(518,430,c),
(472,457,l),
(782,551,l),
(748,526,l)
);
},
{
closed = 1;
nodes = (
(604,289,l),
(604,405,l),
(10,405,l),
(10,289,l)
);
},
{
closed = 1;
nodes = (
(709,0,l),
(719,202,l),
(248,202,l),
(248,0,l)
);
}
);
};
layerId = m01;
shapes = (
{
closed = 1;
nodes = (
(422,507,o),
(441,519,o),
(461,519,cs),
(485.704,519,o),
(503.122,501.067,o),
(514.514,468.072,c),
(750.073,539.499,l),
(711.715,658.378,o),
(587.075,716,o),
(455,716,cs),
(300,716,o),
(179,637,o),
(154,463,cs),
(134,327,o),
(98,173,o),
(46,20,c),
(46,0,l),
(309,0,l),
(361,157,o),
(397,313,o),
(415,453,cs)
);
},
{
closed = 1;
nodes = (
(610,289,l),
(610,405,l),
(16,405,l),
(16,289,l)
);
},
{
closed = 1;
nodes = (
(715,0,l),
(725,202,l),
(254,202,l),
(254,0,l)
);
}
);
width = 760;
}
);
unicode = 163;
},
{
glyphname = plus;
lastChange = "2025-07-24 08:47:57 +0000";
layers = (
{
background = {
shapes = (
{
closed = 1;
nodes = (
(82,201,l),
(518,201,l),
(518,353,l),
(82,353,l)
);
},
{
closed = 1;
nodes = (
(376,59,l),
(376,495,l),
(224,495,l),
(224,59,l)
);
}
);
};
layerId = m01;
shapes = (
{
closed = 1;
nodes = (
(32,201,l),
(468,201,l),
(468,353,l),
(32,353,l)
);
},
{
closed = 1;
nodes = (
(326,59,l),
(326,495,l),
(174,495,l),
(174,59,l)
);
}
);
width = 500;
}
);
unicode = 43;
},
{
glyphname = minus;
lastChange = "2025-07-24 08:47:57 +0000";
layers = (
{
layerId = m01;
shapes = (
{
closed = 1;
nodes = (
(32,201,l),
(468,201,l),
(468,353,l),
(32,353,l)
);
}
);
width = 500;
}
);
unicode = 8722;
},
{
glyphname = multiply;
lastChange = "2025-07-24 08:47:57 +0000";
layers = (
{
layerId = m01;
shapes = (
{
closed = 1;
nodes = (
(135,55,l),
(472,392,l),
(365,499,l),
(28,162,l)
);
},
{
closed = 1;
nodes = (
(472,162,l),
(135,499,l),
(28,392,l),
(365,55,l)
);
}
);
width = 500;
}
);
unicode = 215;
},
{
glyphname = equal;
lastChange = "2025-07-24 08:47:57 +0000";
layers = (
{
background = {
shapes = (
{
closed = 1;
nodes = (
(82,316,l),
(518,316,l),
(518,468,l),
(82,468,l)
);
},
{
closed = 1;
nodes = (
(82,96,l),
(518,96,l),
(518,248,l),
(82,248,l)
);
}
);
};
layerId = m01;
shapes = (
{
closed = 1;
nodes = (
(32,316,l),
(468,316,l),
(468,468,l),
(32,468,l)
);
},
{
closed = 1;
nodes = (
(32,96,l),
(468,96,l),
(468,248,l),
(32,248,l)
);
}
);
width = 500;
}
);
unicode = 61;
},
{
glyphname = percent;
lastChange = "2025-07-24 08:47:57 +0000";
layers = (
{
background = {
shapes = (
{
closed = 1;
nodes = (
(187,0,l),
(351,0,l),
(751,700,l),
(587,700,l)
);
},
{
closed = 1;
nodes = (
(235,588,o),
(252,569,o),
(252,542,cs),
(252,497,ls),
(252,470,o),
(235,451,o),
(209,451,cs),
(183,451,o),
(166,470,o),
(166,497,cs),
(166,542,ls),
(166,569,o),
(183,588,o),
(209,588,cs)
);
},
{
closed = 1;
nodes = (
(30,394,o),
(104,323,o),
(209,323,cs),
(314,323,o),
(388,394,o),
(388,494,cs),
(388,545,ls),
(388,645,o),
(314,716,o),
(209,716,cs),
(104,716,o),
(30,645,o),
(30,545,cs),
(30,494,ls)
);
},
{
closed = 1;
nodes = (
(755,249,o),
(772,230,o),
(772,203,cs),
(772,158,ls),
(772,131,o),
(755,112,o),
(729,112,cs),
(703,112,o),
(686,131,o),
(686,158,cs),
(686,203,ls),
(686,230,o),
(703,249,o),
(729,249,cs)
);
},
{
closed = 1;
nodes = (
(550,55,o),
(624,-16,o),
(729,-16,cs),
(834,-16,o),
(908,55,o),
(908,155,cs),
(908,206,ls),
(908,306,o),
(834,377,o),
(729,377,cs),
(624,377,o),
(550,306,o),
(550,206,cs),
(550,155,ls)
);
}
);
};
layerId = m01;
shapes = (
{
closed = 1;
nodes = (
(170,0,l),
(334,0,l),
(734,700,l),
(570,700,l)
);
},
{
closed = 1;
nodes = (
(218,588,o),
(235,569,o),
(235,542,cs),
(235,497,ls),
(235,470,o),
(218,451,o),
(192,451,cs),
(166,451,o),
(149,470,o),
(149,497,cs),
(149,542,ls),
(149,569,o),
(166,588,o),
(192,588,cs)
);
},
{
closed = 1;
nodes = (
(13,394,o),
(87,323,o),
(192,323,cs),
(297,323,o),
(371,394,o),
(371,494,cs),
(371,545,ls),
(371,645,o),
(297,716,o),
(192,716,cs),
(87,716,o),
(13,645,o),
(13,545,cs),
(13,494,ls)
);
},
{
closed = 1;
nodes = (
(738,249,o),
(755,230,o),
(755,203,cs),
(755,158,ls),
(755,131,o),
(738,112,o),
(712,112,cs),
(686,112,o),
(669,131,o),
(669,158,cs),
(669,203,ls),
(669,230,o),
(686,249,o),
(712,249,cs)
);
},
{
closed = 1;
nodes = (
(533,55,o),
(607,-16,o),
(712,-16,cs),
(817,-16,o),
(891,55,o),
(891,155,cs),
(891,206,ls),
(891,306,o),
(817,377,o),
(712,377,cs),
(607,377,o),
(533,306,o),
(533,206,cs),
(533,155,ls)
);
}
);
width = 904;
}
);
unicode = 37;
},
{
glyphname = .notdef;
lastChange = "2025-08-13 14:19:01 +0000";
layers = (
{
layerId = m01;
shapes = (
{
attr = {
strokePos = "1";
};
closed = 1;
nodes = (
(460,710,l),
(460,-110,l),
(140,-110,l),
(140,710,l)
);
},
{
attr = {
strokePos = "1";
};
closed = 1;
nodes = (
(50,-200,l),
(550,-200,l),
(550,800,l),
(50,800,l)
);
}
);
width = 600;
}
);
},
{
glyphname = cent;
layers = (
{
layerId = m01;
shapes = (
{
closed = 1;
nodes = (
(16,328,ls),
(16,186,o),
(144,84,o),
(327,84,cs),
(489,84,o),
(604,166,o),
(627,286,c),
(391,323,l),
(383,288,o),
(363,261,o),
(327,261,cs),
(289,261,o),
(260,289,o),
(260,324,cs),
(260,376,ls),
(260,411,o),
(289,439,o),
(327,439,cs),
(363,439,o),
(383,412,o),
(391,377,c),
(627,414,l),
(604,534,o),
(489,616,o),
(327,616,cs),
(144,616,o),
(16,514,o),
(16,372,cs)
);
},
{
closed = 1;
nodes = (
(224,517,l),
(420,517,l),
(420,700,l),
(224,700,l)
);
},
{
closed = 1;
nodes = (
(224,0,l),
(420,0,l),
(420,183,l),
(224,183,l)
);
}
);
width = 632;
}
);
unicode = 162;
},
{
glyphname = yen;
layers = (
{
layerId = m01;
shapes = (
{
closed = 1;
nodes = (
(538,0,l),
(538,277,l),
(808,700,l),
(493,700,l),
(396,532,l),
(305,700,l),
(-12,700,l),
(258,277,l),
(258,0,l)
);
},
{
closed = 1;
nodes = (
(730,270,l),
(730,396,l),
(66,396,l),
(66,270,l)
);
},
{
closed = 1;
nodes = (
(730,104,l),
(730,230,l),
(66,230,l),
(66,104,l)
);
}
);
width = 796;
}
);
unicode = 165;
},
{
glyphname = divide;
layers = (
{
layerId = m01;
shapes = (
{
closed = 1;
nodes = (
(32,201,l),
(468,201,l),
(468,353,l),
(32,353,l)
);
},
{
closed = 1;
nodes = (
(331,0,l),
(331,155,l),
(168,155,l),
(168,0,l)
);
},
{
closed = 1;
nodes = (
(331,399,l),
(331,554,l),
(168,554,l),
(168,399,l)
);
}
);
width = 500;
}
);
unicode = 247;
},
{
glyphname = greater;
layers = (
{
layerId = m01;
shapes = (
{
closed = 1;
nodes = (
(261,271,l),
(32,196,l),
(32,49,l),
(467,201,l),
(467,341,l),
(32,493,l),
(32,346,l)
);
}
);
width = 499;
}
);
unicode = 62;
},
{
glyphname = less;
layers = (
{
layerId = m01;
shapes = (
{
closed = 1;
nodes = (
(32,201,l),
(467,49,l),
(467,196,l),
(238,271,l),
(467,346,l),
(467,493,l),
(32,341,l)
);
}
);
width = 499;
}
);
unicode = 60;
},
{
glyphname = asciitilde;
layers = (
{
layerId = m01;
shapes = (
{
closed = 1;
nodes = (
(297,320,o),
(262,386,o),
(180,386,cs),
(108,386,o),
(56,334,o),
(15,275,c),
(97,181,l),
(123,210,o),
(145,234,o),
(179,234,cs),
(231,234,o),
(266,168,o),
(348,168,cs),
(420,168,o),
(472,220,o),
(513,279,c),
(431,373,l),
(405,344,o),
(383,320,o),
(349,320,cs)
);
}
);
width = 528;
}
);
unicode = 126;
},
{
glyphname = asciicircum;
layers = (
{
layerId = m01;
shapes = (
{
closed = 1;
nodes = (
(188,700,l),
(30,302,l),
(189,302,l),
(261,503,l),
(333,302,l),
(492,302,l),
(334,700,l)
);
}
);
width = 522;
}
);
unicode = 94;
},
{
glyphname = grave;
layers = (
{
layerId = m01;
shapes = (
{
closed = 1;
nodes = (
(164,569,l),
(312,569,l),
(243,731,l),
(50,731,l)
);
}
